<svg id="Layer_1" data-name="Layer 1" xmlns="http://www.w3.org/2000/svg" viewBox="0 0 200 100"><defs><style>.cls-1{fill:none;stroke:#8787d8;stroke-miterlimit:10;opacity:0.3;}</style></defs><title>Artboard 1</title><path class="cls-1" d="M178.5,100.5l-7-7h-10v-8h-35a1,1,0,1,1-1-1,1,1,0,0,1,1,1"/><path class="cls-1" d="M192.5,100.5,178,86l-4.5,4.5-13-13h-12v-13l-10-10-.29-.29a1,1,0,1,1,0-1.42,1,1,0,0,1,0,1.42"/><path class="cls-1" d="M198.5,99.5,178,79l-2,2L157.5,62.5l-.29-.29a1,1,0,1,1,0-1.42,1,1,0,0,1,0,1.42"/><path class="cls-1" d="M200.5,93.5l-21-21h-5l-9-9v-6l-14-14H34.5a1,1,0,1,1-1-1,1,1,0,0,1,1,1"/><path class="cls-1" d="M200.5,82.5l-24-24v-10l-13-13-1.29-1.29a1,1,0,1,1,0-1.42,1,1,0,0,1,0,1.42"/><path class="cls-1" d="M200.5,87.5l-19-19h-6a1,1,0,1,1-1-1,1,1,0,0,1,1,1"/><path class="cls-1" d="M200.5,68.5l-12-12v-13l5-5v-5L189,29l-4.5,4.5L173,22l-.79-.79a1,1,0,1,1,0-1.42,1,1,0,0,1,0,1.42"/><path class="cls-1" d="M200.5,77.5l-19-19v-15l-18-18-.79-.79a1,1,0,1,1,0-1.42,1,1,0,0,1,0,1.42"/><path class="cls-1" d="M200.5,56.5,193,49V45.5l4.75-4.75V10.5l.46-1.29a1,1,0,1,1,0-1.42,1,1,0,0,1,0,1.42"/></svg>