<svg id="图层_1" data-name="图层 1" xmlns="http://www.w3.org/2000/svg" viewBox="0 0 738 347.58"><defs><style>.cls-1{fill:#171f35;}.cls-2{fill:#87c5f9;}</style></defs><title>cloud</title><rect class="cls-1" width="738" height="347.58"/><path class="cls-2" d="M453.67,203.23V144.34c5.55-2.77,10-8.33,10-15A16.37,16.37,0,0,0,447,112.68a17.51,17.51,0,0,0-10.56,3.89l-57.22-30a16.7,16.7,0,0,0-32.78,1.66l-55,29.45a15.09,15.09,0,0,0-11.66-5,16.37,16.37,0,0,0-16.67,16.66,16.69,16.69,0,0,0,12.78,16.12v56.66a16.69,16.69,0,0,0-12.78,16.11,16.37,16.37,0,0,0,16.67,16.67,15.12,15.12,0,0,0,11.66-5l55,29.44a16.38,16.38,0,0,0,16.67,14.45A16.67,16.67,0,0,0,379.22,261l56.67-30a17.56,17.56,0,0,0,10.55,3.89,16.37,16.37,0,0,0,16.67-16.67,16.75,16.75,0,0,0-9.44-15ZM434.78,206l-26.11-12.78V154.34l26.11-12.77a13.3,13.3,0,0,0,7.22,3.89v56.66C439.22,202.68,437,204.34,434.78,206Zm-5-74.44L402.56,144.9l-33.89-19.44V106a17.6,17.6,0,0,0,8.89-7.78L429.78,126v5.56Zm-65,80-33.34-18.89V154.9L364.78,136l33.33,18.89v37.78ZM357.56,106v20.56l-32.78,18.89-28.34-13.89v-3.89l52.78-28.34A14.17,14.17,0,0,0,357.56,106Zm-66.12,35.56L320.33,156v36.11l-28.89,14.45a30.52,30.52,0,0,0-4.44-3.34V144.34C288.67,143.79,289.78,142.68,291.44,141.57Zm5,74.44,28.34-14.44,32.78,18.89V241a14.17,14.17,0,0,0-8.34,6.67L296.44,219.9V216Zm72.23,25.56V222.12l34.44-19.44L430.33,216v2.22a7,7,0,0,0,.56,3.34l-52.22,27.77c-2.78-3.88-6.11-6.66-10-7.77Z"/></svg>