<svg id="图层_1" data-name="图层 1" xmlns="http://www.w3.org/2000/svg" viewBox="0 0 738 347.58"><defs><style>.cls-1{fill:#171f35;}.cls-2{fill:#aaa;}.cls-3{fill:none;}.cls-4{fill:#458ddb;}.cls-5{fill:#b957f2;}.cls-6{fill:#d86545;}.cls-7{fill:#45d8b2;}</style></defs><title>server</title><rect class="cls-1" width="738" height="347.58"/><path class="cls-2" d="M304,126.4"/><rect class="cls-3" x="245.16" y="98.23" width="239.23" height="163.12"/><path class="cls-4" d="M429,155.09H300.54a24.71,24.71,0,0,0,0,49.41H429a24.71,24.71,0,1,0,0-49.41Zm0,39.53H300.54a14.83,14.83,0,0,1,0-29.65H429a14.83,14.83,0,1,1,0,29.65Zm0,0"/><path class="cls-5" d="M419.13,179.8a7.41,7.41,0,1,0,7.41-7.42,7.41,7.41,0,0,0-7.41,7.42Zm0,0"/><path class="cls-4" d="M300.54,145.21H429a24.71,24.71,0,1,0,0-49.41H300.54a24.71,24.71,0,0,0,0,49.41Zm0-39.53H429a14.83,14.83,0,1,1,0,29.65H300.54a14.83,14.83,0,0,1,0-29.65Zm0,0"/><path class="cls-6" d="M419.13,120.5a7.41,7.41,0,1,0,7.41-7.41,7.41,7.41,0,0,0-7.41,7.41Zm0,0"/><path class="cls-4" d="M429,214.38H300.54a24.71,24.71,0,0,0,0,49.42H429a24.71,24.71,0,1,0,0-49.42Zm0,39.53H300.54a14.83,14.83,0,0,1,0-29.65H429a14.83,14.83,0,1,1,0,29.65Zm0,0"/><path class="cls-7" d="M419.13,239.09a7.41,7.41,0,1,0,7.41-7.41,7.41,7.41,0,0,0-7.41,7.41Zm0,0"/></svg>