<svg id="图层_1" data-name="图层 1" xmlns="http://www.w3.org/2000/svg" viewBox="0 0 738 347.58"><defs><style>.cls-1{fill:#171f35;}.cls-2{fill:#28eaf9;}.cls-3{fill:#458ddb;}.cls-4{fill:#aaa;}.cls-5{fill:none;}</style></defs><title>ss</title><rect class="cls-1" width="738" height="347.58"/><polyline class="cls-2" points="332.12 98.23 397.37 98.23 364.75 130.86 332.12 98.23"/><path class="cls-3" d="M348.44,203.28A22.66,22.66,0,0,0,343,217.86a21.75,21.75,0,0,0,43.5,0,21.27,21.27,0,0,0-6.42-15.34l15.44-15.44a43.51,43.51,0,1,1-74.27,30.78,43.13,43.13,0,0,1,12-29.91l-.11-.11,77-76.88a43.5,43.5,0,1,1,0,61.55l15.44-15.44a21.26,21.26,0,0,0,15.33,6.41,21.75,21.75,0,1,0,0-43.5,21.27,21.27,0,0,0-15.33,6.42l-77.1,76.88"/><path class="cls-3" d="M304,126.4A21.29,21.29,0,0,0,288.62,120a21.75,21.75,0,0,0,0,43.5A21.28,21.28,0,0,0,304,157.07l15.44,15.44a43.51,43.51,0,1,1,0-61.55l30,30L334,156.41Z"/><path class="cls-4" d="M304,126.4"/><rect class="cls-5" x="245.16" y="98.23" width="239.23" height="163.12"/></svg>