<svg xmlns="http://www.w3.org/2000/svg" xmlns:xlink="http://www.w3.org/1999/xlink" viewBox="0 0 1920 1080"><defs><style>.cls-1{fill:none;}.cls-2{isolation:isolate;}.cls-3{fill:url(#radial-gradient);}.cls-4{clip-path:url(#clip-path);}.cls-5{fill:url(#radial-gradient-2);}.cls-6{fill:url(#radial-gradient-3);}.cls-7{fill:url(#radial-gradient-4);}.cls-8{fill:url(#radial-gradient-6);}.cls-9{opacity:0.26;fill:url(#radial-gradient-7);}.cls-10,.cls-29,.cls-30,.cls-31,.cls-32,.cls-33,.cls-34,.cls-35,.cls-36,.cls-37,.cls-38,.cls-50,.cls-51,.cls-52,.cls-53,.cls-54,.cls-55,.cls-56,.cls-57,.cls-58,.cls-59,.cls-9{mix-blend-mode:color-dodge;}.cls-10{opacity:0.21;fill:url(#radial-gradient-8);}.cls-11{fill:url(#radial-gradient-9);}.cls-12,.cls-13,.cls-14,.cls-15,.cls-16,.cls-61,.cls-62,.cls-63,.cls-64,.cls-65,.cls-67,.cls-68,.cls-69,.cls-70,.cls-71{mix-blend-mode:multiply;}.cls-12{fill:url(#linear-gradient);}.cls-13{fill:url(#linear-gradient-2);}.cls-14{fill:url(#linear-gradient-3);}.cls-15{fill:url(#linear-gradient-4);}.cls-16{fill:url(#linear-gradient-5);}.cls-17{fill:#fff;}.cls-18{fill:url(#linear-gradient-6);}.cls-19{fill:url(#linear-gradient-7);}.cls-20{fill:url(#linear-gradient-8);}.cls-21{fill:url(#linear-gradient-9);}.cls-22{fill:url(#linear-gradient-10);}.cls-23{fill:url(#linear-gradient-11);}.cls-24{fill:url(#linear-gradient-12);}.cls-25{fill:url(#linear-gradient-13);}.cls-26{fill:url(#linear-gradient-14);}.cls-27{fill:url(#linear-gradient-15);}.cls-28{fill:url(#linear-gradient-16);}.cls-29{fill:url(#radial-gradient-10);}.cls-30{fill:url(#radial-gradient-11);}.cls-31{fill:url(#radial-gradient-12);}.cls-32{fill:url(#radial-gradient-13);}.cls-33{fill:url(#radial-gradient-14);}.cls-34{fill:url(#radial-gradient-15);}.cls-35{fill:url(#radial-gradient-16);}.cls-36{fill:url(#radial-gradient-17);}.cls-37{fill:url(#radial-gradient-18);}.cls-38{fill:url(#radial-gradient-19);}.cls-39{fill:url(#linear-gradient-17);}.cls-40{fill:url(#linear-gradient-18);}.cls-41{fill:url(#linear-gradient-19);}.cls-42{fill:url(#linear-gradient-20);}.cls-43{fill:url(#linear-gradient-21);}.cls-44{fill:url(#linear-gradient-22);}.cls-45{fill:url(#linear-gradient-23);}.cls-46{fill:url(#linear-gradient-24);}.cls-47{fill:url(#linear-gradient-25);}.cls-48{fill:url(#linear-gradient-26);}.cls-49{fill:url(#linear-gradient-27);}.cls-50{fill:url(#radial-gradient-20);}.cls-51{fill:url(#radial-gradient-21);}.cls-52{fill:url(#radial-gradient-22);}.cls-53{fill:url(#radial-gradient-23);}.cls-54{fill:url(#radial-gradient-24);}.cls-55{fill:url(#radial-gradient-25);}.cls-56{fill:url(#radial-gradient-26);}.cls-57{fill:url(#radial-gradient-27);}.cls-58{fill:url(#radial-gradient-28);}.cls-59{fill:url(#radial-gradient-29);}.cls-60{fill:url(#linear-gradient-28);}.cls-61{fill:url(#linear-gradient-29);}.cls-62{fill:url(#linear-gradient-30);}.cls-63{fill:url(#linear-gradient-31);}.cls-64{fill:url(#linear-gradient-32);}.cls-65{fill:url(#linear-gradient-33);}.cls-66{fill:url(#linear-gradient-34);}.cls-67{fill:url(#linear-gradient-35);}.cls-68{fill:url(#linear-gradient-36);}.cls-69{fill:url(#linear-gradient-37);}.cls-70{fill:url(#linear-gradient-38);}.cls-71{fill:url(#linear-gradient-39);}</style><radialGradient id="radial-gradient" cx="959.49" cy="540" r="688.36" gradientTransform="translate(-183.88) scale(1.19 1)" gradientUnits="userSpaceOnUse"><stop offset="0" stop-color="#22042e"/><stop offset="1"/></radialGradient><clipPath id="clip-path"><rect class="cls-1" x="149.64" width="1620" height="1080"/></clipPath><radialGradient id="radial-gradient-2" cx="959.64" cy="542.19" r="664.17" gradientTransform="translate(664.46 -519.77) rotate(45)" gradientUnits="userSpaceOnUse"><stop offset="0" stop-color="#22042e"/><stop offset="0.53" stop-color="#21042c"/><stop offset="0.71" stop-color="#1c0325"/><stop offset="0.85" stop-color="#13021a"/><stop offset="0.96" stop-color="#060109"/><stop offset="1"/></radialGradient><radialGradient id="radial-gradient-3" cx="959.64" cy="542.19" r="560.49" xlink:href="#radial-gradient-2"/><radialGradient id="radial-gradient-4" cx="959.64" cy="542.19" r="346.66" xlink:href="#radial-gradient-2"/><radialGradient id="radial-gradient-6" cx="959.64" cy="542.19" r="184.67" xlink:href="#radial-gradient-2"/><radialGradient id="radial-gradient-7" cx="959.64" cy="542.19" r="145.79" gradientUnits="userSpaceOnUse"><stop offset="0" stop-color="#ffa800"/><stop offset="1" stop-color="#ff4081"/></radialGradient><radialGradient id="radial-gradient-8" cx="959.64" cy="542.19" r="124.55" xlink:href="#radial-gradient-7"/><radialGradient id="radial-gradient-9" cx="955.14" cy="504.34" r="144.74" gradientTransform="translate(1269.11 -518.62) rotate(76.82)" xlink:href="#radial-gradient-7"/><linearGradient id="linear-gradient" x1="1048.26" y1="621.41" x2="1000.2" y2="579.29" gradientUnits="userSpaceOnUse"><stop offset="0" stop-color="#ffa800" stop-opacity="0"/><stop offset="0.16" stop-color="#ffa702" stop-opacity="0.01"/><stop offset="0.29" stop-color="#ffa307" stop-opacity="0.05"/><stop offset="0.41" stop-color="#ff9c0f" stop-opacity="0.12"/><stop offset="0.53" stop-color="#ff921b" stop-opacity="0.21"/><stop offset="0.63" stop-color="#ff862b" stop-opacity="0.33"/><stop offset="0.74" stop-color="#ff763e" stop-opacity="0.48"/><stop offset="0.84" stop-color="#ff6454" stop-opacity="0.65"/><stop offset="0.94" stop-color="#ff4f6e" stop-opacity="0.85"/><stop offset="1" stop-color="#ff4081"/></linearGradient><linearGradient id="linear-gradient-2" x1="988.41" y1="424.71" x2="965.73" y2="492.75" xlink:href="#linear-gradient"/><linearGradient id="linear-gradient-3" x1="917.35" y1="536.02" x2="961.26" y2="536.02" xlink:href="#linear-gradient"/><linearGradient id="linear-gradient-4" x1="871.7" y1="473.83" x2="885.2" y2="488.95" xlink:href="#linear-gradient"/><linearGradient id="linear-gradient-5" x1="867.25" y1="609.06" x2="892.09" y2="590.16" xlink:href="#linear-gradient"/><linearGradient id="linear-gradient-6" x1="1080.84" y1="674.71" x2="1093.68" y2="674.71" gradientUnits="userSpaceOnUse"><stop offset="0" stop-color="#9be6fd"/><stop offset="1" stop-color="#00b7f9"/></linearGradient><linearGradient id="linear-gradient-7" x1="755" y1="419.64" x2="764.63" y2="419.64" xlink:href="#linear-gradient-6"/><linearGradient id="linear-gradient-8" x1="1313.25" y1="557.24" x2="1319.27" y2="557.24" xlink:href="#linear-gradient-6"/><linearGradient id="linear-gradient-9" x1="608.26" y1="523.15" x2="614.28" y2="523.15" xlink:href="#linear-gradient-6"/><linearGradient id="linear-gradient-10" x1="984.83" y1="386.28" x2="990.85" y2="386.28" xlink:href="#linear-gradient-6"/><linearGradient id="linear-gradient-11" x1="1137.37" y1="395.62" x2="1143.39" y2="395.62" xlink:href="#linear-gradient-6"/><linearGradient id="linear-gradient-12" x1="847.56" y1="392.2" x2="860.4" y2="392.2" gradientUnits="userSpaceOnUse"><stop offset="0" stop-color="#ff4081"/><stop offset="1" stop-color="#ffa800"/></linearGradient><linearGradient id="linear-gradient-13" x1="743.37" y1="675.88" x2="749.79" y2="675.88" xlink:href="#linear-gradient-12"/><linearGradient id="linear-gradient-14" x1="924.71" y1="680.26" x2="931.13" y2="680.26" xlink:href="#linear-gradient-12"/><linearGradient id="linear-gradient-15" x1="1200.21" y1="680.26" x2="1206.63" y2="680.26" xlink:href="#linear-gradient-12"/><linearGradient id="linear-gradient-16" x1="1263.25" y1="400.09" x2="1269.67" y2="400.09" xlink:href="#linear-gradient-12"/><radialGradient id="radial-gradient-10" cx="1145.05" cy="758.18" r="53.69" gradientUnits="userSpaceOnUse"><stop offset="0" stop-color="#fd8963"/><stop offset="0" stop-color="#fa8762"/><stop offset="0.05" stop-color="#cb6e4f"/><stop offset="0.09" stop-color="#a1573f"/><stop offset="0.15" stop-color="#7a4230"/><stop offset="0.21" stop-color="#593023"/><stop offset="0.27" stop-color="#3d2118"/><stop offset="0.34" stop-color="#27150f"/><stop offset="0.42" stop-color="#150b08"/><stop offset="0.52" stop-color="#090504"/><stop offset="0.66" stop-color="#020101"/><stop offset="1"/></radialGradient><radialGradient id="radial-gradient-11" cx="1330.27" cy="529.37" r="28.79" xlink:href="#radial-gradient-10"/><radialGradient id="radial-gradient-12" cx="710.78" cy="632.1" r="28.79" gradientTransform="translate(655.15 -317.46) rotate(45)" xlink:href="#radial-gradient-10"/><radialGradient id="radial-gradient-13" cx="1275.79" cy="681.13" r="28.79" xlink:href="#radial-gradient-10"/><radialGradient id="radial-gradient-14" cx="1070.31" cy="316.91" r="28.79" xlink:href="#radial-gradient-10"/><radialGradient id="radial-gradient-15" cx="643.08" cy="646.11" r="53.69" gradientTransform="translate(645.22 -265.48) rotate(45)" xlink:href="#radial-gradient-10"/><radialGradient id="radial-gradient-16" cx="949.71" cy="293.56" r="53.7" xlink:href="#radial-gradient-10"/><radialGradient id="radial-gradient-17" cx="1189.41" cy="391.62" r="42.02" xlink:href="#radial-gradient-10"/><radialGradient id="radial-gradient-18" cx="867.21" cy="746.5" r="42.02" xlink:href="#radial-gradient-10"/><radialGradient id="radial-gradient-19" cx="694.44" cy="365.94" r="42.02" xlink:href="#radial-gradient-10"/><linearGradient id="linear-gradient-17" x1="1117.35" y1="725.67" x2="1134.58" y2="725.67" xlink:href="#linear-gradient-6"/><linearGradient id="linear-gradient-18" x1="679.94" y1="383.27" x2="692.87" y2="383.27" xlink:href="#linear-gradient-6"/><linearGradient id="linear-gradient-19" x1="1429.33" y1="567.98" x2="1437.41" y2="567.98" xlink:href="#linear-gradient-6"/><linearGradient id="linear-gradient-20" x1="482.96" y1="522.21" x2="491.05" y2="522.21" xlink:href="#linear-gradient-6"/><linearGradient id="linear-gradient-21" x1="988.46" y1="338.48" x2="996.54" y2="338.48" xlink:href="#linear-gradient-6"/><linearGradient id="linear-gradient-22" x1="1193.23" y1="351.02" x2="1201.31" y2="351.02" xlink:href="#linear-gradient-6"/><linearGradient id="linear-gradient-23" x1="804.19" y1="346.44" x2="821.43" y2="346.44" xlink:href="#linear-gradient-12"/><linearGradient id="linear-gradient-24" x1="664.34" y1="727.24" x2="672.95" y2="727.24" xlink:href="#linear-gradient-12"/><linearGradient id="linear-gradient-25" x1="907.75" y1="733.11" x2="916.37" y2="733.11" xlink:href="#linear-gradient-12"/><linearGradient id="linear-gradient-26" x1="1277.58" y1="733.11" x2="1286.2" y2="733.11" xlink:href="#linear-gradient-12"/><linearGradient id="linear-gradient-27" x1="1362.2" y1="357.02" x2="1370.82" y2="357.02" xlink:href="#linear-gradient-12"/><radialGradient id="radial-gradient-20" cx="1203.53" cy="837.72" r="72.08" xlink:href="#radial-gradient-10"/><radialGradient id="radial-gradient-21" cx="1452.17" cy="530.57" r="38.65" xlink:href="#radial-gradient-10"/><radialGradient id="radial-gradient-22" cx="620.59" cy="668.47" r="38.65" xlink:href="#radial-gradient-10"/><radialGradient id="radial-gradient-23" cx="1379.04" cy="734.29" r="38.65" xlink:href="#radial-gradient-10"/><radialGradient id="radial-gradient-24" cx="1103.21" cy="245.37" r="38.65" xlink:href="#radial-gradient-10"/><radialGradient id="radial-gradient-25" cx="529.7" cy="687.28" r="72.08" xlink:href="#radial-gradient-10"/><radialGradient id="radial-gradient-26" cx="941.31" cy="214.03" r="72.08" gradientTransform="translate(1145.71 -729.43) rotate(89.41)" xlink:href="#radial-gradient-10"/><radialGradient id="radial-gradient-27" cx="1263.08" cy="345.66" r="56.41" xlink:href="#radial-gradient-10"/><radialGradient id="radial-gradient-28" cx="830.57" cy="822.04" r="56.41" xlink:href="#radial-gradient-10"/><radialGradient id="radial-gradient-29" cx="598.65" cy="311.18" r="56.41" xlink:href="#radial-gradient-10"/><linearGradient id="linear-gradient-28" x1="1064.71" y1="228.01" x2="1123.02" y2="228.01" xlink:href="#linear-gradient-6"/><linearGradient id="linear-gradient-29" x1="1116.58" y1="249.07" x2="1103.98" y2="238.03" gradientUnits="userSpaceOnUse"><stop offset="0" stop-color="#ffa800" stop-opacity="0"/><stop offset="0.18" stop-color="#fba803" stop-opacity="0.02"/><stop offset="0.32" stop-color="#eea70d" stop-opacity="0.06"/><stop offset="0.45" stop-color="#d9a51e" stop-opacity="0.15"/><stop offset="0.58" stop-color="#bba236" stop-opacity="0.26"/><stop offset="0.7" stop-color="#959f54" stop-opacity="0.42"/><stop offset="0.81" stop-color="#669b7a" stop-opacity="0.6"/><stop offset="0.92" stop-color="#2f96a6" stop-opacity="0.82"/><stop offset="1" stop-color="#0092cb"/></linearGradient><linearGradient id="linear-gradient-30" x1="1100.89" y1="197.52" x2="1094.95" y2="215.35" xlink:href="#linear-gradient-29"/><linearGradient id="linear-gradient-31" x1="1082.26" y1="226.69" x2="1093.77" y2="226.69" xlink:href="#linear-gradient-29"/><linearGradient id="linear-gradient-32" x1="1070.3" y1="210.39" x2="1073.84" y2="214.35" xlink:href="#linear-gradient-29"/><linearGradient id="linear-gradient-33" x1="1069.14" y1="245.83" x2="1075.65" y2="240.88" xlink:href="#linear-gradient-29"/><linearGradient id="linear-gradient-34" x1="720.64" y1="278.7" x2="753.03" y2="278.7" gradientUnits="userSpaceOnUse"><stop offset="0" stop-color="#eff4c2"/><stop offset="1" stop-color="#bdcb0e"/></linearGradient><linearGradient id="linear-gradient-35" x1="749.45" y1="290.39" x2="742.45" y2="284.26" gradientUnits="userSpaceOnUse"><stop offset="0" stop-color="#ffa800" stop-opacity="0"/><stop offset="0.19" stop-color="#fca801" stop-opacity="0.02"/><stop offset="0.34" stop-color="#f3a904" stop-opacity="0.07"/><stop offset="0.48" stop-color="#e5aa09" stop-opacity="0.17"/><stop offset="0.61" stop-color="#d0ab10" stop-opacity="0.3"/><stop offset="0.73" stop-color="#b5ad19" stop-opacity="0.47"/><stop offset="0.85" stop-color="#93af24" stop-opacity="0.68"/><stop offset="0.97" stop-color="#6db231" stop-opacity="0.93"/><stop offset="1" stop-color="#61b335"/></linearGradient><linearGradient id="linear-gradient-36" x1="740.73" y1="261.76" x2="737.43" y2="271.66" xlink:href="#linear-gradient-35"/><linearGradient id="linear-gradient-37" x1="730.38" y1="277.96" x2="736.78" y2="277.96" xlink:href="#linear-gradient-35"/><linearGradient id="linear-gradient-38" x1="723.74" y1="268.91" x2="725.71" y2="271.11" xlink:href="#linear-gradient-35"/><linearGradient id="linear-gradient-39" x1="723.09" y1="288.6" x2="726.71" y2="285.85" xlink:href="#linear-gradient-35"/></defs><title>404</title><g class="cls-2"><g id="图层_1" data-name="图层 1"><rect class="cls-3" x="-5.7" width="1930.68" height="1080"/><g class="cls-4"><circle class="cls-5" cx="959.64" cy="542.19" r="664.17" transform="translate(-102.31 837.37) rotate(-45)"/><circle class="cls-6" cx="959.64" cy="542.19" r="560.49" transform="translate(-102.31 837.37) rotate(-45)"/><circle class="cls-7" cx="959.64" cy="542.19" r="346.66" transform="translate(-102.31 837.37) rotate(-45)"/><circle class="cls-7" cx="959.64" cy="542.19" r="346.66" transform="translate(-102.31 837.37) rotate(-45)"/><circle class="cls-8" cx="959.64" cy="542.19" r="184.67" transform="translate(-102.31 837.37) rotate(-45)"/><path class="cls-9" d="M1105.43,542.19A145.79,145.79,0,1,1,959.64,396.4,145.79,145.79,0,0,1,1105.43,542.19Z"/><path class="cls-10" d="M1084.19,542.19A124.55,124.55,0,1,1,959.64,417.63,124.55,124.55,0,0,1,1084.19,542.19Z"/></g><circle class="cls-11" cx="961.62" cy="541.06" r="111.23" transform="translate(215.51 1353.94) rotate(-76.82)"/><path class="cls-12" d="M1062,589.13a34.9,34.9,0,1,0-46.09,49A111.7,111.7,0,0,0,1062,589.13Z"/><path class="cls-13" d="M961.62,429.83a111.06,111.06,0,0,0-11.89.64,34.89,34.89,0,1,0,68,14.58A110.68,110.68,0,0,0,961.62,429.83Z"/><path class="cls-14" d="M961.26,536a22,22,0,1,1-22-21.95A22,22,0,0,1,961.26,536Z"/><path class="cls-15" d="M880.43,465.07a111.52,111.52,0,0,0-15.54,21.1,13.3,13.3,0,1,0,15.54-21.1Z"/><path class="cls-16" d="M875.22,581a21.83,21.83,0,0,0-14.93,5.89,111.45,111.45,0,0,0,25.38,35.37A22,22,0,0,0,875.22,581Z"/><path class="cls-17" d="M760.38,415.48V563.16h36v15.19h-36v49.72H742.82V578.35H633.25V560.78l109.57-145.3ZM649.62,563.16h93.2v-123h-.9Z"/><path class="cls-17" d="M1230.16,415.48V563.16h36v15.19h-36v49.72h-17.57V578.35H1103V560.78l109.57-145.3ZM1119.4,563.16h93.19v-123h-.89Z"/><path class="cls-18" d="M1093.68,674.71a6.42,6.42,0,1,1-6.42-6.42A6.41,6.41,0,0,1,1093.68,674.71Z"/><path class="cls-19" d="M764.63,419.64a4.82,4.82,0,1,1-4.82-4.82A4.82,4.82,0,0,1,764.63,419.64Z"/><path class="cls-20" d="M1319.27,557.24a3,3,0,1,1-3-3A3,3,0,0,1,1319.27,557.24Z"/><path class="cls-21" d="M614.28,523.15a3,3,0,1,1-3-3A3,3,0,0,1,614.28,523.15Z"/><path class="cls-22" d="M990.85,386.28a3,3,0,1,1-3-3A3,3,0,0,1,990.85,386.28Z"/><path class="cls-23" d="M1143.39,395.62a3,3,0,1,1-3-3A3,3,0,0,1,1143.39,395.62Z"/><path class="cls-24" d="M860.4,392.2a6.42,6.42,0,1,1-6.42-6.42A6.41,6.41,0,0,1,860.4,392.2Z"/><path class="cls-25" d="M749.79,675.88a3.21,3.21,0,1,1-3.21-3.21A3.21,3.21,0,0,1,749.79,675.88Z"/><path class="cls-26" d="M931.13,680.26a3.21,3.21,0,1,1-3.21-3.21A3.21,3.21,0,0,1,931.13,680.26Z"/><path class="cls-27" d="M1206.63,680.26a3.21,3.21,0,1,1-3.21-3.21A3.21,3.21,0,0,1,1206.63,680.26Z"/><path class="cls-28" d="M1269.67,400.08a3.21,3.21,0,1,1-3.21-3.2A3.22,3.22,0,0,1,1269.67,400.08Z"/><path class="cls-29" d="M1198.74,758.18a53.7,53.7,0,1,1-53.69-53.7A53.69,53.69,0,0,1,1198.74,758.18Z"/><path class="cls-30" d="M1359.06,529.37a28.79,28.79,0,1,1-28.79-28.79A28.79,28.79,0,0,1,1359.06,529.37Z"/><circle class="cls-31" cx="710.78" cy="632.1" r="28.79" transform="translate(-238.78 687.74) rotate(-45)"/><path class="cls-32" d="M1304.58,681.13a28.79,28.79,0,1,1-28.79-28.79A28.79,28.79,0,0,1,1304.58,681.13Z"/><path class="cls-33" d="M1099.1,316.92a28.79,28.79,0,1,1-28.79-28.8A28.79,28.79,0,0,1,1099.1,316.92Z"/><circle class="cls-34" cx="643.08" cy="646.11" r="53.69" transform="translate(-268.52 643.96) rotate(-45)"/><path class="cls-35" d="M1003.4,293.56a53.7,53.7,0,1,1-53.69-53.69A53.7,53.7,0,0,1,1003.4,293.56Z"/><path class="cls-36" d="M1231.43,391.62a42,42,0,1,1-42-42A42,42,0,0,1,1231.43,391.62Z"/><path class="cls-37" d="M909.23,746.5a42,42,0,1,1-42-42A42,42,0,0,1,909.23,746.5Z"/><path class="cls-38" d="M736.46,365.94a42,42,0,1,1-42-42A42,42,0,0,1,736.46,365.94Z"/><path class="cls-39" d="M1134.58,725.67a8.62,8.62,0,1,1-8.62-8.62A8.61,8.61,0,0,1,1134.58,725.67Z"/><path class="cls-40" d="M692.87,383.27a6.47,6.47,0,1,1-6.47-6.47A6.47,6.47,0,0,1,692.87,383.27Z"/><path class="cls-41" d="M1437.41,568a4,4,0,1,1-4-4A4,4,0,0,1,1437.41,568Z"/><path class="cls-42" d="M491.05,522.21a4,4,0,1,1-4-4A4,4,0,0,1,491.05,522.21Z"/><path class="cls-43" d="M996.54,338.48a4,4,0,1,1-4-4A4,4,0,0,1,996.54,338.48Z"/><path class="cls-44" d="M1201.31,351a4,4,0,1,1-4-4A4,4,0,0,1,1201.31,351Z"/><circle class="cls-45" cx="812.81" cy="346.44" r="8.62"/><path class="cls-46" d="M673,727.24a4.31,4.31,0,1,1-4.31-4.31A4.3,4.3,0,0,1,673,727.24Z"/><path class="cls-47" d="M916.37,733.11a4.31,4.31,0,1,1-4.31-4.31A4.3,4.3,0,0,1,916.37,733.11Z"/><path class="cls-48" d="M1286.2,733.11a4.31,4.31,0,1,1-4.31-4.31A4.3,4.3,0,0,1,1286.2,733.11Z"/><path class="cls-49" d="M1370.82,357a4.31,4.31,0,1,1-4.31-4.31A4.31,4.31,0,0,1,1370.82,357Z"/><path class="cls-50" d="M1275.61,837.71a72.08,72.08,0,1,1-72.07-72.07A72.08,72.08,0,0,1,1275.61,837.71Z"/><path class="cls-51" d="M1490.82,530.57a38.65,38.65,0,1,1-38.65-38.65A38.64,38.64,0,0,1,1490.82,530.57Z"/><path class="cls-52" d="M659.24,668.47a38.65,38.65,0,1,1-38.65-38.64A38.65,38.65,0,0,1,659.24,668.47Z"/><path class="cls-53" d="M1417.69,734.29a38.65,38.65,0,1,1-38.64-38.65A38.65,38.65,0,0,1,1417.69,734.29Z"/><path class="cls-54" d="M1141.86,245.37a38.65,38.65,0,1,1-38.65-38.64A38.64,38.64,0,0,1,1141.86,245.37Z"/><path class="cls-55" d="M601.78,687.28A72.08,72.08,0,1,1,529.7,615.2,72.08,72.08,0,0,1,601.78,687.28Z"/><circle class="cls-56" cx="941.31" cy="214.03" r="72.08" transform="translate(717.68 1153.1) rotate(-89.41)"/><path class="cls-57" d="M1319.49,345.66a56.41,56.41,0,1,1-56.41-56.41A56.41,56.41,0,0,1,1319.49,345.66Z"/><path class="cls-58" d="M887,822a56.41,56.41,0,1,1-56.41-56.4A56.4,56.4,0,0,1,887,822Z"/><path class="cls-59" d="M655.06,311.18a56.41,56.41,0,1,1-56.41-56.41A56.41,56.41,0,0,1,655.06,311.18Z"/><path class="cls-60" d="M1123,228a29.16,29.16,0,1,1-29.15-29.15A29.16,29.16,0,0,1,1123,228Z"/><path class="cls-61" d="M1120.17,240.61a9.15,9.15,0,1,0-12.08,12.85A29.31,29.31,0,0,0,1120.17,240.61Z"/><path class="cls-62" d="M1093.87,198.86a29.36,29.36,0,0,0-3.12.17,9,9,0,0,0-.37,2.56,9.15,9.15,0,0,0,18.21,1.26A28.94,28.94,0,0,0,1093.87,198.86Z"/><path class="cls-63" d="M1093.77,226.69a5.76,5.76,0,1,1-5.75-5.75A5.74,5.74,0,0,1,1093.77,226.69Z"/><path class="cls-64" d="M1072.59,208.09a29.42,29.42,0,0,0-4.07,5.53,3.44,3.44,0,0,0,2.52,1.09,3.49,3.49,0,0,0,1.55-6.62Z"/><path class="cls-65" d="M1071.22,238.49a5.75,5.75,0,0,0-3.91,1.54,29.3,29.3,0,0,0,6.65,9.27,5.75,5.75,0,0,0-2.74-10.81Z"/><path class="cls-66" d="M753,278.7a16.2,16.2,0,1,1-16.2-16.2A16.19,16.19,0,0,1,753,278.7Z"/><path class="cls-67" d="M751.44,285.7a5.08,5.08,0,1,0-6.71,7.13A16.23,16.23,0,0,0,751.44,285.7Z"/><path class="cls-68" d="M736.83,262.5a16.56,16.56,0,0,0-1.73.1,5.08,5.08,0,1,0,9.91,2.12A16.11,16.11,0,0,0,736.83,262.5Z"/><path class="cls-69" d="M736.78,278a3.2,3.2,0,1,1-3.2-3.19A3.2,3.2,0,0,1,736.78,278Z"/><path class="cls-70" d="M725,267.63a16.2,16.2,0,0,0-2.26,3.07,1.9,1.9,0,0,0,1.4.61,1.94,1.94,0,0,0,.86-3.68Z"/><path class="cls-71" d="M724.25,284.52a3.17,3.17,0,0,0-2.17.85,16.1,16.1,0,0,0,3.69,5.15,3.19,3.19,0,0,0-1.52-6Z"/></g></g></svg>