<svg id="图层_1" data-name="图层 1" xmlns="http://www.w3.org/2000/svg" viewBox="0 0 1920 1080"><defs><style>.cls-1{fill:#1c1c2d;}.cls-2{fill:#8787d8;opacity:0.2;}</style></defs><title>01</title><rect class="cls-1" x="-0.5" y="0.5" width="1920" height="1080"/><path class="cls-2" d="M1763.12,1080.06c-.51-.54-1-1.1-1.52-1.62q-20.53-20.57-41.09-41.11-25.27-25.26-50.6-50.49c-3.74-3.73-7.51-7.42-11.28-11.13-.46-.45-1-.87-1.51-1.37H1504.23c-.79-.78-1.53-1.47-2.25-2.19L1461.87,932q-10.12-10.11-20.24-20.24l-11-11c-4.52-4.52-9-9.07-13.58-13.54a4.69,4.69,0,0,1-1.53-3.66c.07-7.6,0-15.2,0-22.8q0-27.94,0-55.89v-3.45q-21.84-21.85-43.6-43.66c-1,.08-1.77.22-2.59.21a3.73,3.73,0,0,1-3.63-2.52,3.86,3.86,0,0,1,.91-4.34,4.09,4.09,0,0,1,4.41-.83,4.05,4.05,0,0,1,2.36,4.3,17.54,17.54,0,0,1-.41,1.73c1.73,1.81,3.43,3.64,5.18,5.4q16.32,16.34,32.64,32.65c1.77,1.77,3.46,3.62,5.26,5.36a3.43,3.43,0,0,1,1.09,2.71c0,4.45,0,8.9,0,13.35v32.82q0,17.39,0,34.76v1.57q14.55,14.56,29.19,29.22l29.1,29.09,29.4,29.39h3l53.68,0q16.41,0,32.82,0l31.7,0h19.18c3.51,0,7,0,10.55,0a4.63,4.63,0,0,1,3.69,1.46c4.68,4.75,9.48,9.4,14.2,14.11q18.51,18.47,37,37,26.86,26.82,53.76,53.62a7.46,7.46,0,0,1,.89,1.3Z"/><path class="cls-2" d="M1772,1080.06c-.61-.69-1.18-1.42-1.83-2.07L1662.65,970.4c-.39-.39-.81-.76-1.18-1.18a2.75,2.75,0,0,0-2.22-.91q-5.84.09-11.67.1c-1.95,0-3.89-.09-5.84-.08-5.09,0-10.19.12-15.29.12-7.78,0-15.57-.12-23.35-.13q-46,0-92,0H1508c-.76-.74-1.5-1.43-2.22-2.15l-13.57-13.57L1470,930.37l-16.9-16.91-12.37-12.38q-8.07-8.05-16.11-16.12c-2.1-2.11-1.94-1.47-1.94-4.58,0-6.86,0-13.72,0-20.58q0-27.94,0-55.89v-3l-36.3-36.27a18.29,18.29,0,0,1-1.95,0,3.1,3.1,0,0,1-2.89-3.16,3.17,3.17,0,0,1,6.3-.41,17.94,17.94,0,0,1,0,2.23c.52.53,1.22,1.26,1.94,2l32,32c.52.53,1,1.08,1.57,1.58a2.61,2.61,0,0,1,.91,2.22c0,.74,0,1.48,0,2.22q0,22.95,0,45.89v32.55c28.38,28.41,56.4,56.48,84.74,84.86h2.32q25,0,50.06,0c9.27,0,18.54,0,27.81,0l30.58,0h20.29c6.39,0,12.79,0,19.18,0a3.91,3.91,0,0,1,3.41,1.42,18,18,0,0,0,1.38,1.38q54.09,54.07,108.16,108.15c.76.75,1.81,1.32,2,2.53Z"/><path class="cls-2" d="M1920,1011.63a3.71,3.71,0,0,1-.88-.54q-18.19-18.18-36.38-36.39a3.68,3.68,0,0,0-.4-.39,4.38,4.38,0,0,1-1.62-3.9c.06-7.32,0-14.64,0-22,0-.74,0-1.48,0-2.22a3.89,3.89,0,0,0-1.29-3.2q-10.32-10.15-20.54-20.36c-4.07-4.06-8.07-8.19-12.12-12.26a2.88,2.88,0,0,1-.93-2.22c0-1.85,0-3.71,0-5.56q0-23.22,0-46.45a5.75,5.75,0,0,1,0-.83,3.16,3.16,0,0,0-1.24-2.93c-.56-.49-1.05-1-1.58-1.56q-13-13-26-26c-.45-.46-.9-.93-1.37-1.38a2.55,2.55,0,0,1-.8-2c0-.65,0-1.3,0-1.94V777.28c0-6.68,0-13.35,0-20a5.25,5.25,0,0,0-1.7-4.15c-7.48-7.33-14.89-14.74-22.3-22.15q-12.78-12.78-25.51-25.61c-4.26-4.27-8.48-8.57-12.81-12.77a5.58,5.58,0,0,1-1.82-4.37q.09-30.47,0-60.92V623a8.15,8.15,0,0,0-1.65-.38c-1.58-.06-3.16,0-4.73,0h-26.7c-1,0-2,0-3,.08a21.24,21.24,0,0,1-1.29,2,4.65,4.65,0,0,1-6.89.42,4.69,4.69,0,1,1,7.08-6.08c.43.59.77,1.24,1.21,2h18.63c3.15,0,6.31,0,9.46,0s6.09-.07,9,0c.75,1,.5,2,.51,2.87,0,7.13,0,14.27,0,21.41v40.89c0,.65,0,1.3,0,1.95a3.69,3.69,0,0,0,1.29,3.18c3.64,3.57,7.22,7.2,10.83,10.8q24.69,24.68,49.37,49.36c.2.19.4.39.59.59,2.29,2.33,2,1.57,2,4.82q0,30.47,0,60.91c0,.65,0,1.31,0,2a4.19,4.19,0,0,0,1.46,3.67c6.6,6.51,13.13,13.1,19.69,19.65q3.84,3.84,7.67,7.67c2.49,2.51,2.15,1.74,2.15,5.33q0,17.25,0,34.49,0,6.54,0,13.07v4.91c.64.68,1.13,1.23,1.65,1.75q15.54,15.54,31.07,31.07c2.42,2.43,2.15,1.61,2.16,5.33,0,7.24,0,14.47,0,21.7,0,4.19-.26,3.22,2.53,6q16.21,16.23,32.45,32.45c.85.84,1.69,1.7,2.53,2.55Z"/><path class="cls-2" d="M1802.06,1080.06c-.58-.7-1.11-1.46-1.75-2.11q-37.5-37.62-75-75.21-10.9-10.93-21.82-21.84l-28.1-28.11a15.46,15.46,0,0,0-1.6-1.54,3.79,3.79,0,0,0-1.5-.6,8.36,8.36,0,0,0-1.66,0c-11.95.11-23.9-.08-35.85,0-1.85,0-3.7.17-5.55.19-1.3,0-2.59-.19-3.88-.18-5.28,0-10.56.13-15.85.17-1.47,0-3-.17-4.43-.18-6.77,0-13.54-.09-20.3,0-7.14.11-14.27-.1-21.4,0s-14.27,0-21.41,0h-23.68c-.57-.53-1.13-1-1.65-1.52L1511.5,944l-31.84-31.85-10.81-10.81q-14.44-14.46-28.91-28.88a5,5,0,0,1-1.62-3.88c0-4.73-.11-9.45-.1-14.18q0-25,.14-50c0-1.11,0-2.21,0-3.25-.7-.45-1.28-.75-1.79-1.15a4.53,4.53,0,0,1-1.55-5.24,4.42,4.42,0,0,1,3.89-3.14,4.68,4.68,0,0,1,2.76,8.73c-.47.29-1,.5-1.47.74-.29,2.19-.39,64.26-.1,69.12.61.63,1.3,1.37,2,2.09l23.2,23.2,9.83,9.83,18.48,18.47,22.8,22.79a16.54,16.54,0,0,1,1.18,1.19,3.42,3.42,0,0,0,3.18,1.29c.46,0,.93,0,1.39,0h51.45c8.8,0,17.6,0,26.4,0,6.76-.05,13.52,0,20.28,0,11.21,0,22.42,0,33.63-.08,3.43,0,6.85-.13,10.28-.13,2.87,0,5.74.14,8.61.2a2.67,2.67,0,0,1,2,.83c.44.47.92.92,1.37,1.38q10.72,10.71,21.44,21.43l105.22,105.17c.71.72,1.33,1.52,2,2.28Z"/><path class="cls-2" d="M1816.53,1080.06c-.64-.67-1.26-1.36-1.92-2q-17.49-17.5-35-35a11.6,11.6,0,0,1-2.91-4.62c-1.54-4.47-3.19-8.89-4.77-13.35a7,7,0,0,0-1.87-3q-4.92-4.5-9.75-9.1a3.85,3.85,0,0,0-3-1.15c-3.42.11-6.85.18-10.27.2-1.76,0-3.52-.11-5.27-.24a2.71,2.71,0,0,1-1.23-.54,10.82,10.82,0,0,1-1.21-1.14l-23.4-23.4c-.33-.33-.63-.68-1-1a2.47,2.47,0,0,1-.83-2c0-2.87,0-5.74,0-8.61,0-4.35,0-8.71,0-13.16-.34-.39-.68-.82-1.06-1.21-4.65-4.66-9.32-9.3-13.93-14a4.11,4.11,0,0,0-3.2-1.27c-4.35.06-8.71,0-13.07,0a4.23,4.23,0,0,1-3.41-1.44c-3-3.06-6-6-9-9.08a4.28,4.28,0,0,0-3.42-1.45c-5.18.12-10.37.17-15.56.18-4.26,0-8.52-.08-12.78-.1l-23.08-.06h-46.69c-3.79,0-7.59-.08-11.38,0a5.77,5.77,0,0,1-4.65-1.89c-6.22-6.35-12.54-12.61-18.84-18.89-1.37-1.37-2.79-2.71-4.23-4a5.29,5.29,0,0,1-1.94-4.37c.12-4.81.05-9.63,0-14.44,0-.91-.08-1.82-.13-2.87-.87-.06-1.58-.16-2.3-.16-5.19,0-10.38,0-15.57,0h-2.55c-.92-.87-.67-1.76-.67-2.55,0-8-.1-15.95,0-23.92,0-2.58-.26-4.76-2.68-6.15L1483.9,834c-.19-.2-.35-.43-.67-.82V810.82a25.69,25.69,0,0,1-2.34-1.56,4.63,4.63,0,0,1-.33-6.7,4.73,4.73,0,0,1,6.54-.26,4.66,4.66,0,0,1-.19,7.09,17.49,17.49,0,0,1-2,1.23c0,.68-.11,1.42-.11,2.15,0,5.84,0,11.68,0,17.52a4.91,4.91,0,0,0,1.57,3.91c5.95,5.85,11.82,11.78,17.73,17.67,1,1,2,1.89,3,2.85a3.8,3.8,0,0,1,1.19,3c-.06,4.55,0,9.09,0,13.63,0,3.89,0,7.79,0,11.68,0,.64.08,1.27.13,2.08.77.08,1.48.22,2.19.23h15.85c.91,0,1.81.08,2.87.14.07,1,.18,1.76.18,2.57,0,5.28.06,10.56,0,15.84a4.25,4.25,0,0,0,1.59,3.61c1.39,1.21,2.6,2.63,3.9,3.94l13.77,13.76c1.83,1.84,3.69,3.64,5.49,5.51a3.73,3.73,0,0,0,2.92,1.27c9.82,0,19.64,0,29.46,0h59.48c6.95,0,13.9,0,20.85,0,3.24,0,2.46-.29,4.8,2,3.22,3.2,6.4,6.44,9.69,9.75,1.09,0,2.19,0,3.29,0,4,0,8,.05,12,0a4.08,4.08,0,0,1,3.18,1.33q7.23,7.33,14.55,14.55a4.32,4.32,0,0,1,1.43,3.42c-.07,5.46,0,10.93,0,16.39V984c.5.54,1,1.11,1.47,1.63,7.6,7.61,15.24,15.18,22.79,22.84a4.92,4.92,0,0,0,4.43,1.61,41,41,0,0,1,4.7.06c3,0,5.94,0,8.9,0a3.91,3.91,0,0,1,3,1.19c3.42,3.26,6.9,6.46,10.36,9.67a7.11,7.11,0,0,1,1.92,3c1.61,4.64,3.32,9.24,4.94,13.87a10.16,10.16,0,0,0,2.5,3.93q18,17.94,36,36c.7.7,1.27,1.54,1.9,2.31Z"/><path class="cls-2" d="M1920,1040c-1.49-1.52-3-3-4.47-4.55q-25.85-25.87-51.7-51.73l-17.3-17.3-22.6-22.61c-.32-.33-.63-.68-1-1a3,3,0,0,1-1.15-2.69c0-.74,0-1.48,0-2.22-.11-8.06.1-16.11,0-24.17-.06-4.06,0-8.13,0-12.2a4.56,4.56,0,0,0-1.51-3.68c-3.43-3.25-6.76-6.6-10.11-9.93-1.51-1.5-3-3.08-4.45-4.59-6.28-6.3-12.59-12.58-18.86-18.89-2.66-2.67-2.34-1.71-2.34-5.52q0-12.24,0-24.47,0-24.75,0-49.5c0-.75,0-1.49,0-2.23a2.52,2.52,0,0,0-.83-2c-.47-.45-.92-.92-1.38-1.38q-8.85-8.85-17.69-17.7-12.62-12.56-25.24-25.1-8.65-8.62-17.29-17.3c-.46-.46-1-.88-1.37-1.38a3.71,3.71,0,0,0-3.19-1.31c-3.24,0-6.49,0-9.73,0l-32.26,0c-8.06,0-16.13-.05-24.19,0a5.85,5.85,0,0,1-4.64-1.89c-5.43-5.57-11-11-16.49-16.54-.65-.65-1.32-1.27-2-2a19.45,19.45,0,0,1-1.9.47,4.69,4.69,0,0,1-4-8,4.68,4.68,0,0,1,7.79,4.41,14.4,14.4,0,0,1-.46,1.59L1649.92,715h2l43.94,0c7.41,0,14.83,0,22.24-.06a4.93,4.93,0,0,1,3.89,1.63c5.52,5.62,11.12,11.17,16.69,16.74q22.72,22.7,45.43,45.41c.33.32.64.67,1,1a2.92,2.92,0,0,1,1.06,2.45c0,.84,0,1.67,0,2.51q0,36.71,0,73.41c0,3.74-.32,2.91,2.31,5.54L1810.92,886c3.73,3.73,7.45,7.48,11.21,11.18a4.15,4.15,0,0,1,1.37,3.17c0,2.78.21,5.56.2,8.33,0,5.09-.22,10.19-.19,15.28q0,7.08-.06,14.15a5.82,5.82,0,0,0,1.91,4.64c4.79,4.65,9.46,9.41,14.18,14.13q21.82,21.81,43.65,43.63l36.56,36.58a.69.69,0,0,0,.25.1Z"/><path class="cls-2" d="M1827.1,1080.06c-.64-.67-1.26-1.35-1.92-2q-18.27-18.32-36.55-36.61c-.72-.72-1.56-1.31-2.26-1.89,0-1.26,0-2.18,0-3.1,0-5.84,0-11.68,0-17.52a25.67,25.67,0,0,1,.12-2.77,4.47,4.47,0,0,0-1.59-4.19c-2-1.77-3.92-3.67-5.84-5.56-3.23-3.19-6.42-6.42-9.64-9.63-.39-.39-.82-.75-1.19-1.17a4.24,4.24,0,0,0-3.47-1.34c-7.5.06-15,0-22.52,0a3.39,3.39,0,0,1-2.72-1c-3.82-3.91-7.7-7.76-11.51-11.68-3.17-3.28-2.59-2-2.61-6.54q-.06-13.63,0-27.26a4.07,4.07,0,0,0-1.27-3.19c-5.54-5.47-11-11-16.55-16.5-1.24-1.23-2.57-2.38-4-3.73h-143c-.65-.59-1.28-1.12-1.86-1.7l-11.41-11.4c-3.87-3.86-7.73-7.73-11.63-11.57a2.74,2.74,0,0,1-1-2.16q.13-7,.16-13.9c0-5.28,0-10.57,0-15.85a4.26,4.26,0,0,0-1.39-3.45c-3.35-3.19-6.65-6.45-9.94-9.71-1.25-1.24-2.39-2.58-3.64-3.83q-12.07-12.1-24.18-24.2c-.46-.46-.9-.93-1.37-1.37a2.65,2.65,0,0,1-.89-2.24c0-.37,0-.74,0-1.11q0-11.13,0-22.25a12.49,12.49,0,0,1,.09-1.94c.12-.71.6-.87,1.42-.44,0,.8.09,1.71.09,2.62,0,7.14,0,14.28,0,21.42a5,5,0,0,0,1.56,3.92c9,8.87,17.85,17.81,26.78,26.71q5.7,5.7,11.49,11.31a4.69,4.69,0,0,1,1.53,3.66c-.06,8.9,0,17.8,0,26.7,0,.65,0,1.3,0,1.95a4.68,4.68,0,0,0,1.43,3.76c2.56,2.55,5.07,5.15,7.61,7.73,1.1,1.12,2.22,2.22,3.33,3.33L1561,922.63h143.6l22.45,22.5c0,1.53.09,3.1.09,4.67,0,8.71,0,17.43,0,26.14a4.63,4.63,0,0,0,1.47,3.67c3.93,3.81,7.76,7.72,11.63,11.58.46.45,1,.86,1.52,1.36h8.85c5,0,10,0,15,0a4.61,4.61,0,0,1,3.66,1.53q8.68,8.82,17.48,17.53a4.36,4.36,0,0,1,1.41,3.43c-.06,6.67,0,13.34,0,20,0,.74,0,1.48,0,2.22a2.63,2.63,0,0,0,1,2.19c.48.44.93.92,1.39,1.37q18.49,18.48,37,37c.7.7,1.27,1.54,1.9,2.31Z"/><path class="cls-2" d="M1750.32,1080.06c-.6-.69-1.18-1.42-1.82-2.07l-33.42-33.44c-.33-.33-.68-.64-1-1a3.19,3.19,0,0,0-2.69-1.15c-3.33.13-6.66.22-10,.23-2.31,0-4.62-.16-6.93-.23a2.44,2.44,0,0,1-1.7-.83c-3.54-3.55-7.06-7.1-10.63-10.61a3.5,3.5,0,0,1-.84-2.81V1007c-1.82-1.83-3.58-3.6-5.35-5.36L1657,982.85c-.46-.46-.94-.9-1.37-1.39a2.75,2.75,0,0,0-2.22-.91c-4.08,0-8.16,0-12.24,0l-6.94,0-31.15,0H1464.72c-.73-.69-1.35-1.25-1.93-1.84-6.17-6.16-12.29-12.37-18.52-18.46a5.79,5.79,0,0,1-1.88-4.65c.1-5,.06-10,.06-15,0-.91-.07-1.82-.1-2.59a4.16,4.16,0,0,0-2.88-.52c-5.1,0-10.2-.07-15.3,0a5.39,5.39,0,0,1-4.41-1.76c-2.68-2.82-5.57-5.43-8.32-8.18-3.54-3.54-7-7.14-10.53-10.71-.51-.52-1.07-1-1.63-1.51l-1.68.35a4.45,4.45,0,0,1-4.49-1.52,4.85,4.85,0,0,1-.85-5c.65-2,3.59-3.25,5.83-2.55a4.36,4.36,0,0,1,3.14,5.4c-.14.63-.38,1.24-.63,2.06q10.79,10.81,21.76,21.78h21c.84.8.61,1.68.61,2.48,0,5.65.1,11.31,0,17a5,5,0,0,0,1.61,3.9q9.1,9,18.09,18.09a4.92,4.92,0,0,0,3.91,1.58c7.78-.09,15.57-.1,23.36-.1,5.65,0,11.31.06,17,.06h124.31c7.32,0,14.64,0,22-.06a2.65,2.65,0,0,1,2.23.83c.25.27.53.51.8.77l23.87,23.72a5.48,5.48,0,0,0,.59.59,3.9,3.9,0,0,1,1.38,3.41c-.08,5.46,0,10.93.07,16.4,0,1.57,0,3.14,0,4.81a7.68,7.68,0,0,0,.64.79c3.14,3.15,6.31,6.27,9.42,9.46a3.73,3.73,0,0,0,3,1.15c5.46,0,10.92,0,16.39,0a2.9,2.9,0,0,1,2.23.93c.5.54,1.05,1,1.57,1.57q17.28,17.34,34.54,34.69c.62.63,1.53,1.08,1.61,2.14Z"/><path class="cls-2" d="M1736.42,1080.06a18.93,18.93,0,0,0-1.35-1.72c-6.59-6.65-13.22-13.26-19.77-19.95a5.23,5.23,0,0,0-4.14-1.73c-7.69.08-15.39,0-23.08.06a5,5,0,0,1-3.9-1.6q-12.83-12.94-25.75-25.77a4.68,4.68,0,0,1-1.52-3.67c.06-7.69,0-15.38,0-23.07,0-1.28-.15-2.56-.23-3.88a11,11,0,0,0-4-.46H1533.44c-3.71,0-7.41-.06-11.12,0a4.51,4.51,0,0,1-3.67-1.49c-2.81-2.95-5.75-5.78-8.62-8.68-.65-.66-1.21-1.4-1.79-2.08H1461.4c-.85-.83-1.58-1.53-2.3-2.25-4.2-4.2-8.41-8.38-12.56-12.61a4.4,4.4,0,0,0-3.41-1.47c-7,.07-14.09.06-21.13,0a4.31,4.31,0,0,0-3.43,1.41c-3.55,3.66-7.18,7.23-10.83,10.88a23.17,23.17,0,0,1,.5,2.45,4.47,4.47,0,0,1-4,5.07,4.61,4.61,0,1,1-1.3-9.13,25.71,25.71,0,0,1,3.56.3c.35-.31.91-.77,1.43-1.28,3.28-3.27,6.58-6.53,9.81-9.85a4.38,4.38,0,0,1,3.39-1.49c7.6.08,15.21.06,22.81,0a4.09,4.09,0,0,1,3.18,1.31q6.24,6.35,12.58,12.59c2.8,2.78,1.64,2.33,5.5,2.33q20.16,0,40.32,0h3.1l12.25,12.23h68.73l34.47,0c11.38,0,22.76,0,34.27,0a24.87,24.87,0,0,1,.41,5.72c0,8.25,0,16.49,0,24.46L1687,1055h3.47c5.93,0,11.86,0,17.79,0,1.58,0,3.15-.07,4.73-.14a2.86,2.86,0,0,1,2.47,1,8.21,8.21,0,0,0,.6.58q10.89,10.93,21.77,21.88a16.07,16.07,0,0,1,1.33,1.72Z"/><path class="cls-2" d="M1920,976.59c-1.07-1.13-2.14-2.27-3.22-3.4-.06-1.47-.17-2.94-.17-4.42q0-15.84,0-31.7v-3c-.93-1-1.76-1.82-2.61-2.67l-32.24-32.25c-.4-.4-.77-.82-1.19-1.18a3.07,3.07,0,0,1-1.13-2.7c.06-.73,0-1.48,0-2.22V844.67a18.11,18.11,0,0,1,0-1.95,3.87,3.87,0,0,0-1.44-3.41c-3.45-3.36-6.84-6.79-10.24-10.21-6.93-7-13.82-14-20.79-20.89a5.59,5.59,0,0,1-1.82-4.38q.08-29.05,0-58.11c0-4.29.43-3.16-2.64-6.24q-15.32-15.36-30.66-30.69c-.52-.52-1-1.08-1.57-1.57a2.92,2.92,0,0,1-1.14-2.68,7.66,7.66,0,0,0,0-.83q0-21.84-.1-43.66,0-11.82,0-23.63c0-.56,0-1.12,0-1.67a3.75,3.75,0,0,1,1.35-3.14c6.16-6,12.24-12.14,18.33-18.23a4.35,4.35,0,0,0,.41-.62c-.19-.48-.46-1-.65-1.64a4.72,4.72,0,1,1,9.11-2.27,4.8,4.8,0,0,1-4.92,5.42,10,10,0,0,1-1.73-.3c-.46.39-1,.78-1.42,1.23-5.71,5.69-11.4,11.42-17.14,17.08a4.72,4.72,0,0,0-1.53,3.65c0,14.74,0,29.47,0,44.21q0,11,0,22v3.13c.77.81,1.52,1.62,2.3,2.4q15.52,15.54,31.06,31.06a7.34,7.34,0,0,0,.8.78c1.48,1.1,1.82,2.57,1.82,4.37q-.08,29.05,0,58.12c0,4.21-.38,3.19,2.46,6q14.67,14.63,29.37,29.21a14.6,14.6,0,0,0,1.18,1.18,4,4,0,0,1,1.53,3.92,43.83,43.83,0,0,0-.18,4.44q0,23.09,0,46.16c0,3.61-.42,2.75,2.15,5.32q16.11,16.13,32.25,32.24a9.05,9.05,0,0,0,1,1,4.9,4.9,0,0,1,1.83,4.37c-.07,11.4,0,22.8,0,34.2,0,1.54.07,3,1.62,3.8Z"/><path class="cls-2" d="M1784.26,1080.06c-.24-1.09-1.19-1.62-1.89-2.32q-12.46-12.52-25-25-44.25-44.26-88.5-88.52c-2.84-2.85-1.9-2.46-6-2.47-5.75,0-11.5-.11-17.24,0-6.49.14-13-.1-19.45,0-9.82.09-19.64-.06-29.46,0-9.26.08-18.52-.08-27.79,0s-18.36,0-27.53,0-18.55,0-27.82,0c-3.91,0-2.83.39-5.53-2.3q-13.59-13.54-27.14-27.13l-20.45-20.45c-2.42-2.42-4.87-4.81-7.42-7.33.33-.4.64-.8,1-1.31,2.25,2.15,4.39,4.17,6.5,6.23.92.9,1.75,1.91,2.66,2.83q6.18,6.21,12.39,12.39l33.43,33.42c.39.39.8.77,1.18,1.18a2.47,2.47,0,0,0,2,.85c.65,0,1.3,0,2,0h43.67c8.06,0,16.13,0,24.19,0,9.45-.06,18.9,0,28.35,0,7.41,0,14.82,0,22.23,0,10.75,0,21.5,0,32.25-.12a5.9,5.9,0,0,1,4.53,2.16q42.08,42.12,84.18,84.18,15.73,15.73,31.47,31.47c.71.71,1.34,1.51,2,2.27Z"/><path class="cls-2" d="M1853.11,604.81l-32.83,32.83c-.66.65-1.28,1.33-1.93,2v64.13c.72.74,1.49,1.54,2.27,2.32q15.15,15.13,30.31,30.26c2.19,2.19,2,1.49,2,4.82q0,28.1,0,56.18c0,3.58,0,3.54,2.66,6,1.63,1.5,3.13,3.14,4.7,4.71l24.79,24.77c.52.53,1,1.09,1.57,1.57a3.6,3.6,0,0,1,1.37,3.16c-.07,1.39,0,2.78,0,4.17.2,7.78-.07,15.56,0,23.33s0,15.39,0,23.08v2.23c0,3.66-.12,3,2.21,5.32q9.36,9.32,18.76,18.59c3.63,3.57,7.32,7.08,11,10.61v2.78c-.87-.81-1.76-1.59-2.6-2.42q-14.4-14.31-28.78-28.64c-.46-.46-.89-.94-1.37-1.38a2.69,2.69,0,0,1-.93-2.22c0-.83,0-1.67,0-2.5q0-19.47,0-38.94c0-1.48-.15-3-.18-4.44,0-.92,0-1.84.07-2.77,0-2.22.07-4.44.11-6.66a2.57,2.57,0,0,0-.85-2c-.4-.37-.78-.78-1.18-1.17q-11.68-11.71-23.39-23.41c-2.82-2.81-5.64-5.62-8.5-8.39a3.06,3.06,0,0,1-1.08-2.43c0-.74,0-1.48,0-2.22q0-27.81,0-55.62c0-3.78.28-2.95-2.31-5.55q-14.84-14.86-29.68-29.7c-.53-.52-1-1.07-1.58-1.57a3.24,3.24,0,0,1-1.13-2.69c.07-3.15,0-6.31,0-9.46l0-51.44c0-.65,0-1.29,0-1.94a2.41,2.41,0,0,1,.79-2c.28-.25.52-.54.78-.8q8.05-8.07,16.12-16.13,9.63-9.63,19.26-19.27"/><path class="cls-2" d="M1920,994.94q-8.43-8.46-16.85-16.94c-1.83-1.84-3.62-3.73-5.52-5.49a4.47,4.47,0,0,1-1.54-3.66c.08-4.91,0-9.82,0-14.73,0-4.18-.07-8.35,0-12.52a4.94,4.94,0,0,0-1.65-3.88q-15-14.9-29.91-29.87c-.84-.85-1.67-1.72-2.5-2.58V848.39c-.79-.81-1.55-1.62-2.33-2.4l-27.13-27.14c-.46-.46-.9-.94-1.38-1.37a2.92,2.92,0,0,1-1.08-2.44c0-.84,0-1.67,0-2.51q0-30.3,0-60.62V750.8c0-3.13.29-2.55-2-4.84q-11.31-11.3-22.63-22.59c-4.84-4.86-9.61-9.79-14.47-14.62a4.7,4.7,0,0,1-1.53-3.67c.06-8,0-15.94,0-23.92V653.34a24.35,24.35,0,0,1-2.37-1.56,4.67,4.67,0,0,1,0-7.09,4.82,4.82,0,0,1,6.55.32,4.74,4.74,0,0,1-.31,6.74,26,26,0,0,1-2.23,1.5v50.51c0,.37,0,.74,0,1.11a2.86,2.86,0,0,0,1,2.48c.55.5,1,1,1.58,1.57q17.79,17.8,35.59,35.59c.52.52,1,1.07,1.57,1.57a2.72,2.72,0,0,1,.9,2.24c0,.83,0,1.66,0,2.5q0,30.72,0,61.45c0,3.8-.29,3,2.29,5.56q12.38,12.4,24.78,24.77c1.12,1.11,2.23,2.23,3.42,3.26a4.36,4.36,0,0,1,1.59,3.63c-.08,6.67,0,13.35,0,20q0,16.28,0,32.54v2.46l2.41,2.47,28.91,28.9.59.59c2.42,2.49,2.13,1.59,2.14,5q0,12.66,0,25.31v3.24c.54.59,1,1.08,1.42,1.54l20.43,20.46a.69.69,0,0,0,.25.1Z"/><path class="cls-2" d="M1383.07,1009.86l.13-1.31c.14-.11.2-.17.28-.22a.51.51,0,0,1,.25-.11h15.88c.78-.74,1.52-1.43,2.24-2.14,5.44-5.44,10.92-10.84,16.29-16.34a5.55,5.55,0,0,1,4.39-1.83q11.25.12,22.52,0a5,5,0,0,1,3.89,1.65c3.49,3.59,7,7.11,10.6,10.63,2.23,2.21,1.5,1.92,4.57,1.92q17.51,0,35,0h3.14c.74.7,1.48,1.37,2.2,2.09q12.48,12.46,25,25c.78.79,1.46,1.68,2,2.36,2.77.06,5.16.16,7.56.16q25.71,0,51.43,0c11.49,0,23,0,34.47,0a5.33,5.33,0,0,1,4.15,1.7c8.36,8.41,16.8,16.75,25.21,25.11.66.65,1.37,1.27,2,2a3.93,3.93,0,0,0,3.41,1.47c2.87-.08,5.74,0,8.62,0,4.44,0,8.89.06,13.34,0,6.2-.1,12.41.14,18.61,0a5.42,5.42,0,0,1,4.39,1.82c4.91,5,9.93,10,14.91,15,.46.46.87,1,1.31,1.44h-2.78a13.18,13.18,0,0,0-1.15-1.52c-4.44-4.47-8.93-8.9-13.34-13.4a4.78,4.78,0,0,0-3.91-1.6c-3.8.16-7.59.23-11.39.26-1.75,0-3.51-.22-5.27-.22-7.41,0-14.83,0-22.25,0a12.69,12.69,0,0,0-1.38,0,4.72,4.72,0,0,1-4.17-1.65c-8.68-8.75-17.44-17.43-26.18-26.12-.79-.79-1.59-1.55-2.45-2.39h-85.09c-2.69,0-5.37-.06-8,0a4.49,4.49,0,0,1-3.68-1.48c-3.88-4-7.85-7.88-11.8-11.79-3.23-3.19-6.5-6.34-9.72-9.55-1.7-1.7-3.36-3.45-5-5.23a4.47,4.47,0,0,0-3.62-1.6c-7.51.09-15,.06-22.52.06-4.82,0-9.64-.07-14.46,0a4.29,4.29,0,0,1-3.39-1.5c-3.43-3.52-6.92-7-10.39-10.45-.46-.46-.95-.89-1.38-1.38a3,3,0,0,0-2.46-1c-4.08,0-8.16,0-12.24,0-3.34,0-6.67.06-10,0a4.29,4.29,0,0,0-3.43,1.42c-5.79,5.87-11.67,11.66-17.45,17.55a4.29,4.29,0,0,1-3.35,1.54c-4.82-.08-9.64,0-14.46,0a7.08,7.08,0,0,1-1.09-.18Z"/><path class="cls-2" d="M1920,985.49c-3.85-3.88-7.64-7.81-11.57-11.6a5.53,5.53,0,0,1-1.78-4.41c.07-10.2,0-20.39,0-30.59,0-3.3.27-2.56-2-4.82q-15.32-15.36-30.66-30.69a11.94,11.94,0,0,0-1.19-1.17c-1.49-1.12-1.78-2.61-1.77-4.39,0-16.78,0-33.56,0-50.33v-3.4c-.78-.82-1.53-1.63-2.31-2.41q-14.24-14.26-28.5-28.52c-.39-.39-.76-.82-1.18-1.18a3,3,0,0,1-1.16-2.68c0-.83,0-1.67,0-2.51q0-28.9,0-57.83a9.19,9.19,0,0,1,0-1.39c.26-1.84-.54-3.11-1.82-4.38q-15.11-15-30.1-30.07a8.3,8.3,0,0,0-.79-.78c-1.64-1.22-2.07-2.81-2.06-4.84.1-12,0-24.1.06-36.15a11.93,11.93,0,0,1,.17-2.47c.06-.28.63-.44,1-.64a3.32,3.32,0,0,1,.5,2.53q0,10,0,20c0,5.47.08,10.94,0,16.41a5.15,5.15,0,0,0,1.75,4.12q15.39,15.28,30.69,30.65c2.51,2.51,2.22,1.69,2.22,5.3q0,29.75,0,59.51c0,3.74-.29,2.9,2.33,5.53q14.14,14.18,28.32,28.31c.85.85,1.68,1.72,2.6,2.66v3.31q0,24.61,0,49.22c0,.74.05,1.49,0,2.22a3,3,0,0,0,1.07,2.72c.56.48,1,1,1.58,1.56L1906.17,933c.46.46.9.94,1.39,1.37a2.65,2.65,0,0,1,.91,2.22c0,.65,0,1.3,0,1.95,0,10.1,0,20.21,0,30.31a5.11,5.11,0,0,0,1.67,4.16c3.37,3.16,6.6,6.47,9.89,9.72Z"/><path class="cls-2" d="M1873.83,1080.06c-.32-.34-.62-.69-.94-1l-59.38-59.42c-1.9-1.9-3.79-3.81-5.7-5.7a3.28,3.28,0,0,1-1-2.19,34.19,34.19,0,0,1,0-5.26c.21-2.58.07-5.19.08-7.78,0-1.76-.07-3.53,0-5.29a3.82,3.82,0,0,0-1.49-3.39c-.71-.59-1.34-1.29-2-1.94l-53.29-53.31c-.4-.4-.77-.81-1.19-1.18a2.62,2.62,0,0,1-.91-2.22c0-.65,0-1.3,0-2V871.57c-.7-.46-1.34-.82-1.91-1.27a4.69,4.69,0,0,1,3.32-8.41,4.57,4.57,0,0,1,4.12,3.56,4.41,4.41,0,0,1-1.4,4.54,17.45,17.45,0,0,1-2.29,1.52c-.41,2.65.14,5.52-.08,8.36s0,5.75,0,8.62,0,5.75,0,8.63,0,5.92,0,8.88v25.83c.8.82,1.5,1.56,2.22,2.28q20.46,20.45,40.92,40.89c4.2,4.19,8.47,8.31,12.71,12.46.52.52,1,1.09,1.57,1.58a4.61,4.61,0,0,1,1.48,4.22c-.24,3.13-.17,6.29-.14,9.44,0,2.69.21,5.37.26,8a3.58,3.58,0,0,0,1.21,2.68c2.07,2,4.08,4,6.11,6.06q14.64,14.67,29.28,29.33,14.46,14.45,29,28.88c.69.69,1.68,1.21,1.79,2.36Z"/><path class="cls-2" d="M1920,913.72c-5.63-5.62-11.23-11.27-16.91-16.84a4.94,4.94,0,0,1-1.53-3.94c.06-7.78,0-15.57,0-23.36q0-30.86,0-61.73,0-28.1,0-56.18a18.26,18.26,0,0,1,0-2.22,3.82,3.82,0,0,0-1.44-3.4q-8.91-8.79-17.73-17.66-14.06-14.08-28.07-28.18-3.33-3.36-6.7-6.68c-.51-.51-1.08-1-1.61-1.46-.72.17-1.34.36-2,.46a4.65,4.65,0,0,1-5.27-3.1,4.75,4.75,0,0,1,8.31-4.32,4.22,4.22,0,0,1,.8,3.15c-.09.82-.3,1.62-.49,2.55.68.7,1.37,1.44,2.09,2.16q16.35,16.29,32.69,32.59c6.5,6.49,12.94,13,19.47,19.47a5.27,5.27,0,0,1,1.7,4.15q-.08,27.12,0,54.23v91c1.64,1.86,3.46,3.56,5.22,5.33,2.93,3,5.9,5.88,8.83,8.84.9.92,1.73,1.92,2.59,2.88Z"/><path class="cls-2" d="M1897.75,1080.06l-35.15-35.22-24.14-24.22-1-1a2.53,2.53,0,0,1-.73-2q.06-16.41,0-32.8c0-.92-.06-1.83-.09-2.61-.82-.85-1.7-.61-2.5-.61q-9.32,0-18.63,0a13.12,13.12,0,0,0-1.66,0,4.83,4.83,0,0,1-4.39-1.79c-3.32-3.48-6.78-6.84-10.19-10.24L1761,931.25a3.68,3.68,0,0,0-.4-.39,4.09,4.09,0,0,1-1.56-3.63c.1-4,0-8,0-12,0-8.42,0-16.85,0-25.28,0-1.19-.21-2.38-.33-3.57l-.07.07,2-.13a5.51,5.51,0,0,1,.29,1.15c0,7.78,0,15.57,0,23.35,0,4.73-.1,9.45-.15,14.18,0,.74,0,1.48,0,2.22a2.4,2.4,0,0,0,.83,2c.27.24.52.52.78.78q15.4,15.48,30.82,30.94,8.34,8.37,16.71,16.71a15.5,15.5,0,0,0,1.6,1.54,3.46,3.46,0,0,0,1.49.59,12.52,12.52,0,0,0,1.94,0h20.3c.92,0,1.84,0,2.66.08.78.92.56,1.88.56,2.77,0,4.36,0,8.72,0,13.08,0,6.48.07,13,0,19.46a5.9,5.9,0,0,0,1.94,4.62q22.3,22.15,44.51,44.4,6.88,6.87,13.76,13.77c.66.65,1.26,1.36,1.88,2Z"/><path class="cls-2" d="M1861,1080.06a4.26,4.26,0,0,0-.49-1c-.55-.62-1.15-1.2-1.74-1.79l-56.41-56.46-35.2-35.19c-1.57-1.57-3.2-3.09-4.7-4.73a4.17,4.17,0,0,0-3.43-1.41c-4.17.07-8.34,0-12.51,0a4,4,0,0,1-3.19-1.28q-5.25-5.37-10.62-10.61a4.33,4.33,0,0,1-1.39-3.43c.06-7.69,0-15.38,0-23.08V917.34l-8.15-8.19-8.06-8.06-8.35-8.36,1-1.21c.62.53,1.2,1,1.71,1.49,7.35,7.33,14.67,14.69,22,22a4.67,4.67,0,0,1,1.57,3.64c0,5.65.1,11.3.1,17,0,8.89-.08,17.79-.13,26.68,0,.56,0,1.12,0,1.67a3.19,3.19,0,0,0,1.12,2.69c3.29,3.26,6.57,6.54,9.77,9.88a4.27,4.27,0,0,0,3.43,1.44c4-.1,8,0,11.95-.16a5.35,5.35,0,0,1,4.38,1.81q17.91,18.07,35.92,36l33.82,33.82q14.16,14.15,28.33,28.29c.71.71,1.33,1.52,2,2.28Z"/><path class="cls-2" d="M1920,1072.27c-.87-.8-1.77-1.57-2.61-2.4l-54-54.06c-2.95-2.95-5.86-5.94-8.86-8.83a4.5,4.5,0,0,1-1.43-3.42c-.16-5.46.09-10.92,0-16.37,0-3.07.44-2.36-2-4.81s-5.08-4.87-7.57-7.35c-1.71-1.69-3.38-3.43-5-5.24a4.36,4.36,0,0,0-3.67-1.47c-5.19.07-10.38,0-15.57,0a4.59,4.59,0,0,1-3.65-1.53c-5.33-5.42-10.72-10.77-16.11-16.13-1.17-1.17-2.44-2.26-3.73-3.44-.75.08-1.47.2-2.2.21a4.54,4.54,0,0,1-4.5-2.66,4.87,4.87,0,0,1,.56-5.25c1.84-2.53,6.59-1.83,7.95,1.14a4.29,4.29,0,0,1,.31,3.24c-.21.6-.4,1.21-.65,2l20.66,20.66h5.89c4,0,8,0,12,0a4.35,4.35,0,0,1,3.44,1.38q7.1,7.25,14.33,14.35a4,4,0,0,1,1.34,3.18c-.06,2.68,0,5.37,0,8,0,3.24,0,6.48,0,9.72a3,3,0,0,0,1,2.48c.56.49,1,1,1.58,1.57l59.76,59.74c1,1,1.9,2,2.85,3Z"/><path class="cls-2" d="M1920,889.8a70.38,70.38,0,0,0-5.39-5.13c-2.09-1.61-2.52-3.56-2.48-6,.2-10.65.28-21.31.32-32,0-9.27,0-18.54-.06-27.8,0-4.36.07-8.71.07-13.07,0-1.66-.14-3.33-.21-5,0-.56,0-1.11,0-1.67.08-2.78.23-5.55.24-8.33q0-22.65,0-45.32a16,16,0,0,0,0-2.5,3.34,3.34,0,0,0-.73-1.71c-1.63-1.76-3.35-3.45-5-5.15l-24.76-24.78c-.71-.71-1.39-1.46-2.2-2.31l1.09-1.18c.79.76,1.53,1.44,2.24,2.15q11.61,11.58,23.21,23.19c2.16,2.15,4.26,4.37,6.5,6.45a4.2,4.2,0,0,1,1.46,3.68c-.06.83,0,1.67,0,2.5q0,25.45,0,50.89c0,1.39.12,2.77.19,4.16a13.15,13.15,0,0,1,0,1.66c-.47,5.65-.17,11.3-.18,17,0,5.19,0,10.38,0,15.57q0,21.27,0,42.54c0,4.88-.43,3.48,2.94,7,1,1,1.91,2,2.86,3Z"/><path class="cls-2" d="M1839.33,1080.06c-.5-.54-1-1.09-1.52-1.61l-36.49-36.56c-.65-.64-1.27-1.32-1.91-2l2.42-3c-.17.92-.28,1.54-.42,2.31.74.77,1.49,1.58,2.27,2.35l36,35.9c.85.84,1.64,1.75,2.46,2.63Z"/><path class="cls-2" d="M1755.59,881.25c0,.69-.08,1.37-.11,2.07-.51-.72-1-1.42.09-2.05Z"/><path class="cls-2" d="M1797.18,1040.32h0Z"/><path class="cls-2" d="M1795.82,1031.48a4,4,0,0,1-.67.36c-.12,0-.28,0-.42-.07.1-.13.16-.33.29-.39a3.33,3.33,0,0,1,.71-.16Z"/><path class="cls-2" d="M1758.76,886.42l-.46-.13.39.2Z"/><path class="cls-2" d="M1755.57,881.27l-.07-.4c0,.09,0,.23.09.38Z"/><path class="cls-2" d="M150.31.89c.5.54,1,1.1,1.51,1.62q20.55,20.57,41.1,41.11,25.28,25.26,50.59,50.49,5.63,5.6,11.28,11.13c.46.46,1,.87,1.52,1.37H409.2c.79.78,1.53,1.48,2.25,2.19l40.11,40.13,20.24,20.24,11,11c4.52,4.52,9,9.07,13.57,13.54a4.66,4.66,0,0,1,1.54,3.66c-.07,7.6,0,15.2,0,22.8q0,27.94,0,55.89v3.45q21.84,21.86,43.6,43.66c.95-.08,1.77-.22,2.58-.21a3.74,3.74,0,0,1,3.64,2.52,3.85,3.85,0,0,1-.91,4.34,4.1,4.1,0,0,1-4.41.83,4,4,0,0,1-2.36-4.3,17.54,17.54,0,0,1,.41-1.73c-1.74-1.81-3.43-3.63-5.19-5.39q-16.31-16.35-32.64-32.66c-1.76-1.77-3.46-3.62-5.25-5.36a3.43,3.43,0,0,1-1.09-2.71c0-4.45,0-8.9,0-13.35V232.34q0-17.37,0-34.76V196q-14.55-14.56-29.19-29.22L438,137.7l-29.41-29.39h-3l-53.68,0q-16.41,0-32.82,0l-31.7,0H268.17c-3.52,0-7,0-10.55,0a4.59,4.59,0,0,1-3.69-1.46c-4.69-4.75-9.48-9.4-14.2-14.11q-18.51-18.47-37-37Q175.88,29,149,2.2a8.67,8.67,0,0,1-.9-1.31Z"/><path class="cls-2" d="M141.41.89c.61.69,1.18,1.42,1.83,2.07Q197,56.76,250.78,110.55c.39.39.81.76,1.18,1.18a2.7,2.7,0,0,0,2.21.91q5.85-.09,11.68-.1c1.94,0,3.89.1,5.83.09,5.1,0,10.2-.13,15.29-.13,7.79,0,15.57.12,23.36.13q46,0,92,0h3.1c.76.74,1.5,1.43,2.22,2.15l13.57,13.57,22.22,22.22,16.89,16.91,12.38,12.38c5.37,5.37,10.76,10.73,16.11,16.12,2.1,2.11,1.93,1.47,1.93,4.58q0,10.29,0,20.58,0,27.94,0,55.89v3c12.21,12.19,24.2,24.17,36.3,36.27a18.48,18.48,0,0,1,2,0,3.1,3.1,0,0,1,2.88,3.16,3.17,3.17,0,0,1-6.29.41,17.94,17.94,0,0,1,0-2.23c-.52-.53-1.22-1.26-1.94-2l-32-32.05c-.53-.53-1-1.08-1.57-1.58a2.6,2.6,0,0,1-.91-2.21c0-.74,0-1.49,0-2.23V231.74q0-14,0-28.07v-4.48l-84.73-84.86h-2.33q-25,0-50.05,0c-9.27,0-18.54,0-27.81,0q-15.3,0-30.58,0H273.32c-6.4,0-12.79,0-19.18,0a3.94,3.94,0,0,1-3.42-1.42,17.83,17.83,0,0,0-1.37-1.38Q195.26,57.5,141.18,3.42c-.75-.75-1.8-1.32-2-2.53Z"/><path class="cls-2" d="M-6.57,69.32a4.32,4.32,0,0,1,.88.54Q12.51,88,30.69,106.26a4.64,4.64,0,0,0,.39.38,4.4,4.4,0,0,1,1.63,3.9c-.06,7.32,0,14.65,0,22,0,.74,0,1.49,0,2.22A3.89,3.89,0,0,0,34,137.94q10.31,10.14,20.54,20.36c4.07,4.06,8.07,8.18,12.12,12.26a2.89,2.89,0,0,1,.93,2.21c0,1.85,0,3.71,0,5.56q0,23.22,0,46.45a5.75,5.75,0,0,1,0,.83,3.16,3.16,0,0,0,1.24,2.93c.56.49,1,1,1.58,1.57l25.95,26c.46.46.91.93,1.38,1.38a2.51,2.51,0,0,1,.79,2c0,.65,0,1.3,0,1.95q0,21.14,0,42.27c0,6.68.05,13.35,0,20a5.23,5.23,0,0,0,1.7,4.15q11.22,11,22.29,22.15,12.78,12.78,25.52,25.62c4.25,4.26,8.48,8.56,12.8,12.76a5.55,5.55,0,0,1,1.83,4.37c-.06,20.31,0,40.61,0,60.92v4.27a9.07,9.07,0,0,0,1.66.39c1.58.05,3.15,0,4.73,0h26.7c1,0,2-.05,3-.08.5-.77.84-1.43,1.3-2a4.65,4.65,0,0,1,6.89-.42,4.69,4.69,0,1,1-7.08,6.08c-.43-.58-.77-1.24-1.21-1.95H179.86c-3.16,0-6.31,0-9.46,0s-6.09.07-9-.05a4,4,0,0,1-.51-2.86c0-7.14,0-14.28,0-21.42V394.76c0-.65-.05-1.3,0-1.94a3.72,3.72,0,0,0-1.29-3.19c-3.64-3.57-7.23-7.19-10.83-10.8L99.38,329.47l-.59-.59c-2.28-2.33-2-1.57-2-4.82q0-30.45,0-60.91a18.11,18.11,0,0,1,0-1.95,4.19,4.19,0,0,0-1.47-3.67c-6.6-6.51-13.13-13.09-19.68-19.65-2.56-2.56-5.13-5.1-7.67-7.67s-2.15-1.74-2.15-5.33q0-17.25,0-34.49,0-6.54,0-13.07v-4.91c-.64-.68-1.13-1.23-1.65-1.75q-15.54-15.54-31.07-31.07C30.69,137.16,31,138,31,134.26c0-7.23,0-14.47,0-21.7,0-4.19.26-3.22-2.53-6Q12.2,90.31-4,74.09c-.85-.84-1.69-1.7-2.53-2.55Z"/><path class="cls-2" d="M111.37.89A27.19,27.19,0,0,0,113.12,3q37.5,37.62,75,75.21Q199,89.15,210,100.05l28.1,28.11a14.48,14.48,0,0,0,1.6,1.54,3.73,3.73,0,0,0,1.5.6,8.35,8.35,0,0,0,1.66,0c12-.11,23.9.08,35.85,0,1.85,0,3.7-.17,5.55-.18,1.29,0,2.59.18,3.88.17,5.28,0,10.56-.13,15.84-.17,1.48,0,3,.18,4.44.18,6.77,0,13.54.1,20.3,0,7.13-.11,14.26.1,21.4,0s14.27,0,21.41,0h23.67c.58.53,1.13,1,1.65,1.52,1.72,1.7,3.42,3.41,5.12,5.11l31.84,31.85,10.81,10.81Q459,194.1,473.49,208.52a5,5,0,0,1,1.62,3.88c-.05,4.73.1,9.45.1,14.18q0,25-.15,50v3.26a20.59,20.59,0,0,1,1.8,1.14,4.53,4.53,0,0,1,1.55,5.24,4.42,4.42,0,0,1-3.89,3.14,4.68,4.68,0,0,1-2.76-8.73c.47-.29,1-.5,1.47-.74.28-2.18.38-64.26.1-69.12-.61-.63-1.3-1.37-2-2.09l-23.2-23.2-9.83-9.82L419.8,157.24,397,134.44a14.6,14.6,0,0,1-1.18-1.18,3.42,3.42,0,0,0-3.18-1.3c-.46,0-.93,0-1.39,0H339.8c-8.8,0-17.6-.05-26.4,0-6.76,0-13.52,0-20.28,0-11.21,0-22.42,0-33.63.08-3.43,0-6.86.14-10.28.13-2.87,0-5.74-.14-8.61-.2a2.64,2.64,0,0,1-2-.83c-.44-.47-.92-.92-1.38-1.37L215.8,108.34Q163.18,55.77,110.58,3.17c-.71-.71-1.33-1.52-2-2.28Z"/><path class="cls-2" d="M96.9.89c.64.67,1.26,1.36,1.91,2q17.5,17.51,35,35a11.71,11.71,0,0,1,2.91,4.62c1.54,4.47,3.19,8.9,4.76,13.35a7.14,7.14,0,0,0,1.88,3q4.92,4.5,9.75,9.1a3.84,3.84,0,0,0,3,1.15c3.43-.11,6.85-.18,10.28-.2,1.75,0,3.51.11,5.26.25a2.58,2.58,0,0,1,1.24.53,11.77,11.77,0,0,1,1.21,1.14l23.4,23.41c.32.32.63.68,1,1a2.48,2.48,0,0,1,.83,2c0,2.87,0,5.74,0,8.61,0,4.36,0,8.71,0,13.16.34.39.67.83,1.06,1.21,4.64,4.66,9.32,9.3,13.93,14a4.1,4.1,0,0,0,3.2,1.27c4.35-.06,8.71,0,13.07-.05a4.23,4.23,0,0,1,3.41,1.44c3,3.06,6.05,6,9,9.08a4.26,4.26,0,0,0,3.41,1.45c5.19-.12,10.38-.17,15.57-.18,4.26,0,8.52.09,12.78.1q11.53.06,23.08.06h46.69c3.79,0,7.59.08,11.38,0a5.71,5.71,0,0,1,4.64,1.88c6.23,6.35,12.55,12.61,18.84,18.89,1.38,1.37,2.8,2.71,4.24,4a5.27,5.27,0,0,1,1.94,4.36c-.13,4.81-.05,9.63,0,14.45,0,.9.09,1.81.14,2.86.87.06,1.58.16,2.3.16,5.19,0,10.38,0,15.57,0h2.55c.92.86.67,1.75.67,2.55,0,8,.1,15.94,0,23.91-.05,2.58.26,4.76,2.68,6.15L429.53,247c.19.19.35.42.67.81v22.36a24.18,24.18,0,0,1,2.33,1.56,4.62,4.62,0,0,1,.33,6.7,4.73,4.73,0,0,1-6.53.27,4.67,4.67,0,0,1,.19-7.1,18.27,18.27,0,0,1,2-1.22c0-.69.12-1.42.12-2.16,0-5.84,0-11.68,0-17.52a4.91,4.91,0,0,0-1.57-3.91c-5.95-5.85-11.82-11.78-17.73-17.67-1-1-2-1.88-3-2.85a3.83,3.83,0,0,1-1.2-3c.07-4.54,0-9.09,0-13.63q0-5.83,0-11.68c0-.63-.08-1.27-.13-2.08-.78-.08-1.48-.22-2.19-.22-5.28,0-10.57,0-15.85,0-.91,0-1.81-.08-2.87-.14-.07-1-.18-1.76-.18-2.57,0-5.28-.06-10.56,0-15.84a4.28,4.28,0,0,0-1.59-3.61c-1.39-1.21-2.6-2.63-3.91-3.94q-6.87-6.89-13.76-13.76c-1.83-1.83-3.69-3.64-5.49-5.51a3.73,3.73,0,0,0-2.92-1.27c-9.82,0-19.64,0-29.46,0H246.44c-3.24,0-2.46.28-4.8-2.05-3.22-3.2-6.4-6.44-9.7-9.75-1.09,0-2.19-.05-3.29-.05-4,0-8,0-12,0a4.07,4.07,0,0,1-3.18-1.33q-7.23-7.32-14.55-14.55a4.32,4.32,0,0,1-1.43-3.42c.07-5.46,0-10.93,0-16.39V97c-.49-.55-.95-1.12-1.47-1.64-7.6-7.61-15.23-15.18-22.78-22.84a4.89,4.89,0,0,0-4.43-1.6,41.23,41.23,0,0,1-4.71-.07c-3,0-5.93,0-8.89,0a4,4,0,0,1-3-1.18c-3.42-3.26-6.89-6.47-10.35-9.68A7.11,7.11,0,0,1,140,57c-1.61-4.63-3.32-9.24-5-13.87a10.13,10.13,0,0,0-2.49-3.93q-18-17.94-36-36c-.7-.7-1.27-1.54-1.9-2.31Z"/><path class="cls-2" d="M-6.57,41c1.49,1.51,3,3,4.47,4.54Q23.74,71.37,49.6,97.22l17.3,17.31,22.59,22.6c.33.33.63.68,1,1a3,3,0,0,1,1.15,2.69c0,.74,0,1.48,0,2.22.11,8.06-.1,16.11,0,24.17,0,4.07,0,8.13,0,12.2a4.56,4.56,0,0,0,1.51,3.68c3.43,3.25,6.76,6.6,10.11,9.93,1.51,1.5,3,3.08,4.45,4.59,6.28,6.3,12.59,12.58,18.86,18.89,2.65,2.67,2.33,1.71,2.34,5.52,0,8.16,0,16.32,0,24.47V296c0,.74,0,1.48,0,2.22a2.52,2.52,0,0,0,.83,2c.47.45.92.92,1.38,1.38q8.83,8.85,17.69,17.7L174,344.36q8.66,8.64,17.29,17.3c.46.46,1,.88,1.37,1.38a3.73,3.73,0,0,0,3.19,1.32c3.24,0,6.49,0,9.73,0l32.25,0c8.07,0,16.13,0,24.2,0a5.85,5.85,0,0,1,4.64,1.89c5.43,5.57,11,11,16.48,16.54.65.65,1.33,1.28,2,1.95.67-.17,1.28-.37,1.9-.47a4.71,4.71,0,0,1,5,2.65,4.66,4.66,0,0,1-1,5.37,4.68,4.68,0,0,1-7.79-4.41,14.13,14.13,0,0,1,.46-1.58L263.51,366h-2l-43.94,0c-7.41,0-14.83,0-22.24.06a4.91,4.91,0,0,1-3.89-1.63c-5.52-5.62-11.12-11.16-16.7-16.74L129.3,302.22c-.33-.32-.64-.67-1-1a2.92,2.92,0,0,1-1.06-2.45c0-.83,0-1.67,0-2.5q0-36.72,0-73.42c0-3.74.31-2.91-2.31-5.54l-22.42-22.42c-3.74-3.73-7.45-7.48-11.22-11.18a4.14,4.14,0,0,1-1.36-3.17c0-2.78-.22-5.55-.21-8.33,0-5.09.23-10.19.2-15.28q0-7.07.06-14.15a5.85,5.85,0,0,0-1.91-4.64c-4.79-4.65-9.46-9.41-14.19-14.13Q52.06,102.23,30.24,80.41L-6.33,43.84a.59.59,0,0,0-.24-.11Z"/><path class="cls-2" d="M86.33.89c.64.67,1.26,1.36,1.92,2q18.27,18.31,36.55,36.61c.72.72,1.56,1.31,2.25,1.89v3.11q0,8.75,0,17.51c0,.92,0,1.85-.12,2.77A4.49,4.49,0,0,0,128.55,69c2,1.77,3.93,3.67,5.84,5.56,3.24,3.19,6.43,6.42,9.64,9.63.4.39.82.75,1.2,1.17a4.23,4.23,0,0,0,3.46,1.34c7.51-.06,15,0,22.53,0a3.43,3.43,0,0,1,2.72,1c3.82,3.91,7.7,7.76,11.5,11.68,3.18,3.28,2.6,2,2.62,6.55q0,13.62,0,27.25a4.07,4.07,0,0,0,1.27,3.19c5.54,5.48,11,11,16.54,16.5,1.25,1.23,2.57,2.39,4,3.73h143c.65.59,1.28,1.12,1.86,1.7l11.41,11.4c3.87,3.86,7.73,7.74,11.62,11.57a2.74,2.74,0,0,1,1,2.17q-.14,6.94-.16,13.89c0,5.29,0,10.57,0,15.85A4.25,4.25,0,0,0,380,216.6c3.35,3.19,6.65,6.45,9.94,9.71,1.25,1.24,2.39,2.58,3.64,3.83q12.07,12.11,24.17,24.2c.46.46.91.93,1.38,1.37A2.65,2.65,0,0,1,420,258c0,.37,0,.74,0,1.12q0,11.12,0,22.25a11.45,11.45,0,0,1-.08,1.94c-.12.7-.6.86-1.42.43,0-.8-.09-1.71-.1-2.62,0-7.14,0-14.28,0-21.42a5,5,0,0,0-1.56-3.91c-9-8.88-17.85-17.82-26.78-26.72-3.81-3.79-7.62-7.58-11.49-11.31a4.62,4.62,0,0,1-1.53-3.66c.06-8.9,0-17.8,0-26.7,0-.65,0-1.3,0-1.95a4.68,4.68,0,0,0-1.43-3.76c-2.56-2.55-5.07-5.15-7.61-7.73-1.1-1.11-2.22-2.22-3.33-3.33l-12.24-12.26H208.86l-22.46-22.5c0-1.53-.08-3.1-.08-4.67,0-8.71,0-17.43.05-26.14a4.63,4.63,0,0,0-1.47-3.67c-3.93-3.81-7.76-7.72-11.63-11.58-.46-.45-1-.86-1.52-1.36H162.9c-5,0-10,0-15,0a4.64,4.64,0,0,1-3.66-1.53q-8.67-8.82-17.48-17.52a4.42,4.42,0,0,1-1.4-3.44c.06-6.67,0-13.34,0-20,0-.74,0-1.48,0-2.22a2.64,2.64,0,0,0-1-2.19c-.47-.44-.92-.91-1.38-1.37q-18.5-18.48-37-37c-.7-.7-1.27-1.54-1.9-2.31Z"/><path class="cls-2" d="M163.1.89c.61.69,1.18,1.42,1.83,2.07L198.35,36.4c.33.33.68.64,1,1A3.18,3.18,0,0,0,202,38.54c3.33-.12,6.66-.22,10-.22,2.32,0,4.63.16,6.94.22a2.5,2.5,0,0,1,1.7.83c3.53,3.55,7.06,7.1,10.63,10.61a3.5,3.5,0,0,1,.84,2.81q0,9,0,18.07v3.07c1.83,1.83,3.58,3.6,5.35,5.36l19,18.82c.46.45.93.9,1.37,1.38a2.75,2.75,0,0,0,2.22.91c4.08,0,8.16,0,12.23,0l6.95,0,31.15,0H448.71c.73.69,1.34,1.26,1.93,1.84,6.17,6.16,12.29,12.37,18.52,18.46a5.81,5.81,0,0,1,1.88,4.65c-.1,5-.06,10-.06,15,0,.9.07,1.81.1,2.58a4.1,4.1,0,0,0,2.88.52c5.1,0,10.2.07,15.3,0a5.43,5.43,0,0,1,4.41,1.76c2.68,2.82,5.57,5.43,8.32,8.19,3.54,3.54,7,7.13,10.53,10.7.51.52,1.06,1,1.63,1.51l1.68-.35a4.45,4.45,0,0,1,4.49,1.52,4.87,4.87,0,0,1,.85,5c-.66,2-3.6,3.25-5.83,2.55a4.36,4.36,0,0,1-3.14-5.4c.14-.63.38-1.24.63-2.06l-21.76-21.78H470c-.84-.8-.61-1.68-.61-2.48,0-5.65-.1-11.31,0-17a5,5,0,0,0-1.61-3.9q-9.12-9-18.09-18.09a4.92,4.92,0,0,0-3.91-1.58c-7.79.09-15.57.1-23.36.1-5.65,0-11.31-.06-17-.06H281.16c-7.32,0-14.64,0-22,.06a2.71,2.71,0,0,1-2.24-.82c-.24-.28-.53-.52-.79-.78L232.3,76.84a8.21,8.21,0,0,0-.59-.59,3.9,3.9,0,0,1-1.38-3.41c.08-5.46,0-10.93-.08-16.4,0-1.57,0-3.14,0-4.81a9.29,9.29,0,0,0-.64-.79c-3.14-3.15-6.31-6.27-9.42-9.46a3.73,3.73,0,0,0-3-1.15c-5.46,0-10.92,0-16.39,0a2.85,2.85,0,0,1-2.23-.93c-.51-.54-1-1-1.57-1.57Q179.75,20.38,162.49,3C161.86,2.4,161,2,160.88.89Z"/><path class="cls-2" d="M177,.89a17.64,17.64,0,0,0,1.35,1.72c6.59,6.65,13.22,13.26,19.77,20a5.23,5.23,0,0,0,4.14,1.73c7.69-.08,15.38,0,23.08-.06a5,5,0,0,1,3.9,1.6Q242.08,38.78,255,51.6a4.68,4.68,0,0,1,1.52,3.67c-.06,7.69,0,15.38,0,23.08,0,1.27.15,2.55.23,3.87a11,11,0,0,0,4,.46H380c3.71,0,7.41.06,11.12,0a4.48,4.48,0,0,1,3.66,1.49c2.82,3,5.76,5.78,8.63,8.68.65.66,1.21,1.4,1.79,2.08H452c.85.83,1.58,1.54,2.3,2.26,4.2,4.19,8.41,8.37,12.56,12.6a4.38,4.38,0,0,0,3.41,1.47q10.56-.09,21.13,0a4.31,4.31,0,0,0,3.43-1.41c3.55-3.66,7.18-7.23,10.83-10.88a23.17,23.17,0,0,1-.5-2.45,4.69,4.69,0,1,1,5.3,4.06,25.59,25.59,0,0,1-3.56-.3c-.35.31-.92.77-1.43,1.28-3.28,3.27-6.58,6.53-9.82,9.85a4.35,4.35,0,0,1-3.39,1.49c-7.6-.07-15.2-.06-22.8,0a4.08,4.08,0,0,1-3.18-1.31c-4.16-4.23-8.36-8.41-12.58-12.59-2.8-2.77-1.64-2.33-5.5-2.33q-20.16,0-40.32,0h-3.1L392.55,84.39H323.82l-34.47,0c-11.38,0-22.76,0-34.26,0a23.77,23.77,0,0,1-.41-5.72c0-8.24,0-16.49,0-24.46L226.39,25.91h-3.47c-5.93,0-11.86,0-17.8,0-1.57,0-3.15.07-4.72.14a2.87,2.87,0,0,1-2.48-1,6.47,6.47,0,0,0-.59-.58Q186.44,13.56,175.56,2.61A16.07,16.07,0,0,1,174.23.89Z"/><path class="cls-2" d="M-6.57,104.37l3.22,3.39c.06,1.47.17,2.95.17,4.42q0,15.85,0,31.7v3c.93,1,1.76,1.82,2.61,2.67l32.24,32.26c.39.39.77.81,1.19,1.17a3.07,3.07,0,0,1,1.13,2.7c-.06.74,0,1.48,0,2.22q0,24.19,0,48.39a15.69,15.69,0,0,1,0,1.94,3.9,3.9,0,0,0,1.45,3.41c3.45,3.37,6.84,6.79,10.24,10.21,6.93,7,13.81,14,20.79,20.89a5.59,5.59,0,0,1,1.82,4.38q-.08,29.06,0,58.11c0,4.29-.44,3.16,2.64,6.25q15.3,15.36,30.66,30.68c.52.52,1,1.08,1.57,1.57a2.92,2.92,0,0,1,1.14,2.68,7.85,7.85,0,0,0,0,.84q0,21.83.1,43.65,0,11.82,0,23.63c0,.56,0,1.12,0,1.67a3.72,3.72,0,0,1-1.34,3.14c-6.16,6-12.24,12.15-18.34,18.24a5.5,5.5,0,0,0-.41.61c.2.48.47,1.05.66,1.64a4.71,4.71,0,1,1-4.19-3.15,11,11,0,0,1,1.73.3c.46-.39,1-.78,1.42-1.23,5.71-5.69,11.39-11.41,17.14-17.08a4.68,4.68,0,0,0,1.52-3.65c0-14.74,0-29.47,0-44.21q0-11,0-22v-3.13c-.77-.81-1.52-1.62-2.3-2.4q-15.52-15.54-31.07-31.06a7.27,7.27,0,0,0-.79-.78c-1.48-1.1-1.82-2.57-1.82-4.37q.08-29.06,0-58.12c0-4.21.38-3.19-2.47-6q-14.65-14.62-29.36-29.21a13.14,13.14,0,0,0-1.19-1.17,4.07,4.07,0,0,1-1.52-3.93,43.82,43.82,0,0,0,.17-4.44q0-23.09,0-46.16c0-3.61.42-2.74-2.15-5.32Q14,166.61-2.18,150.49a11.3,11.3,0,0,0-1-1A4.88,4.88,0,0,1-5,145.15c.07-11.4,0-22.8,0-34.2,0-1.54-.07-3-1.62-3.8Z"/><path class="cls-2" d="M129.17.89c.24,1.09,1.19,1.62,1.89,2.33q12.47,12.51,25,25,44.25,44.26,88.49,88.52c2.85,2.85,1.91,2.46,6.05,2.47,5.74,0,11.49.11,17.24,0,6.48-.14,13,.09,19.44,0,9.82-.09,19.65.06,29.46,0,9.27-.08,18.53.08,27.8,0s18.35,0,27.53,0,18.55,0,27.82,0c3.91,0,2.83-.39,5.52,2.3q13.61,13.54,27.15,27.14L453,169.11c2.43,2.42,4.88,4.82,7.42,7.33l-1.05,1.31c-2.24-2.15-4.38-4.17-6.49-6.23-.92-.9-1.75-1.91-2.67-2.83q-6.18-6.21-12.38-12.39l-33.43-33.42c-.4-.39-.81-.77-1.18-1.18a2.47,2.47,0,0,0-2-.85c-.65,0-1.3,0-1.95,0H355.59c-8.06,0-16.13,0-24.2,0-9.45,0-18.9,0-28.35,0-7.41,0-14.82,0-22.23,0-10.74,0-21.49,0-32.24.12a5.9,5.9,0,0,1-4.53-2.16Q202,76.69,159.86,34.63,144.11,18.9,128.39,3.16c-.71-.71-1.34-1.51-2-2.27Z"/><path class="cls-2" d="M60.31,476.15l32.84-32.84c.65-.65,1.28-1.33,1.93-2V377.19c-.73-.75-1.49-1.55-2.27-2.33Q77.65,359.73,62.5,344.6c-2.19-2.19-2-1.49-2-4.82V283.6c0-3.58,0-3.54-2.66-6-1.63-1.51-3.14-3.15-4.71-4.72q-12.37-12.39-24.78-24.77c-.52-.52-1-1.09-1.58-1.57a3.6,3.6,0,0,1-1.36-3.16c.07-1.39,0-2.78,0-4.17-.2-7.78.07-15.55,0-23.33s0-15.39,0-23.08v-2.23c0-3.66.12-3-2.21-5.31Q13.82,176,4.42,166.71c-3.63-3.57-7.33-7.07-11-10.61v-2.78c.87.81,1.76,1.59,2.6,2.42L24.8,184.39c.46.45.9.93,1.38,1.37A2.65,2.65,0,0,1,27.1,188c0,.84,0,1.67,0,2.51q0,19.45,0,38.93c0,1.48.15,3,.18,4.44,0,.92-.05,1.84-.07,2.77q-.06,3.33-.11,6.67a2.57,2.57,0,0,0,.84,2c.41.38.79.78,1.18,1.18l23.4,23.4c2.82,2.81,5.64,5.62,8.5,8.39a3.06,3.06,0,0,1,1.08,2.43c0,.74,0,1.48,0,2.22q0,27.81,0,55.63c0,3.77-.28,3,2.31,5.54q14.83,14.87,29.68,29.7c.53.53,1,1.07,1.58,1.57a3.24,3.24,0,0,1,1.12,2.7c-.06,3.15,0,6.3,0,9.45q0,25.72,0,51.44c0,.65,0,1.3,0,1.94a2.41,2.41,0,0,1-.8,2c-.27.25-.51.54-.77.8q-8.05,8.07-16.12,16.13-9.63,9.65-19.26,19.27"/><path class="cls-2" d="M-6.57,86Q1.85,94.48,10.28,103c1.83,1.84,3.62,3.73,5.52,5.49a4.5,4.5,0,0,1,1.54,3.66c-.08,4.91,0,9.82,0,14.74,0,4.17.07,8.34,0,12.51a4.94,4.94,0,0,0,1.65,3.88q15,14.9,29.91,29.87c.84.85,1.66,1.73,2.49,2.58v56.88c.8.82,1.56,1.62,2.34,2.4L80.8,262.11c.46.46.9.93,1.38,1.36a3,3,0,0,1,1.08,2.45c0,.83,0,1.66,0,2.5q0,30.32,0,60.62v1.11c0,3.13-.29,2.55,2,4.84q11.31,11.29,22.63,22.59c4.84,4.86,9.61,9.79,14.47,14.62a4.74,4.74,0,0,1,1.52,3.67c-.05,8,0,15.94,0,23.92v27.83a22.62,22.62,0,0,1,2.37,1.55,4.67,4.67,0,0,1,0,7.09,4.82,4.82,0,0,1-6.55-.32,4.73,4.73,0,0,1,.31-6.73,22,22,0,0,1,2.23-1.5V377.19c0-.37,0-.74,0-1.11a2.88,2.88,0,0,0-1-2.48c-.55-.5-1-1.05-1.58-1.57L84.1,336.44c-.53-.52-1-1.07-1.58-1.57a2.73,2.73,0,0,1-.89-2.23c0-.84,0-1.67,0-2.51q0-30.72,0-61.45c0-3.8.3-3-2.28-5.56Q67,250.73,54.55,238.35c-1.12-1.11-2.23-2.22-3.42-3.26a4.36,4.36,0,0,1-1.59-3.63c.08-6.67,0-13.34,0-20q0-16.26,0-32.53v-2.47L47.18,174q-14.46-14.44-28.91-28.9c-.2-.19-.4-.39-.59-.59-2.42-2.49-2.14-1.59-2.14-5q0-12.66,0-25.31v-3.24c-.55-.59-1-1.08-1.42-1.54L-6.32,88.89a.93.93,0,0,0-.25-.1Z"/><path class="cls-2" d="M530.36,71.1l-.13,1.3-.28.22a.58.58,0,0,1-.25.12H513.82c-.78.74-1.53,1.43-2.24,2.14-5.45,5.44-10.92,10.84-16.3,16.34a5.53,5.53,0,0,1-4.38,1.83q-11.26-.12-22.52,0a5,5,0,0,1-3.89-1.66c-3.49-3.59-7.05-7.11-10.6-10.63-2.23-2.21-1.5-1.92-4.57-1.92q-17.51,0-35,0h-3.14c-.74-.7-1.49-1.38-2.2-2.1q-12.48-12.47-24.95-25c-.78-.79-1.46-1.68-2.05-2.36-2.77-.06-5.16-.16-7.56-.16l-51.43,0c-11.49,0-23,0-34.47,0a5.28,5.28,0,0,1-4.15-1.7c-8.37-8.41-16.8-16.75-25.22-25.11-.65-.65-1.36-1.26-1.95-2a3.94,3.94,0,0,0-3.41-1.47c-2.87.08-5.75,0-8.62,0-4.45,0-8.89-.06-13.34,0-6.2.1-12.41-.14-18.61,0a5.42,5.42,0,0,1-4.39-1.82c-4.91-5-9.94-10-14.91-15-.46-.46-.88-1-1.31-1.44h2.78a12.37,12.37,0,0,0,1.15,1.52c4.44,4.47,8.93,8.9,13.34,13.41a4.79,4.79,0,0,0,3.91,1.59c3.79-.16,7.59-.23,11.39-.26,1.75,0,3.51.22,5.27.23,7.41,0,14.83,0,22.24,0a10.72,10.72,0,0,0,1.39,0A4.7,4.7,0,0,1,258.23,19c8.68,8.75,17.44,17.42,26.18,26.12.79.78,1.59,1.54,2.44,2.38H372c2.68,0,5.37.07,8.05,0A4.5,4.5,0,0,1,383.68,49c3.88,4,7.85,7.88,11.8,11.79,3.23,3.2,6.5,6.34,9.72,9.55,1.7,1.7,3.36,3.45,5,5.23a4.44,4.44,0,0,0,3.62,1.6c7.5-.09,15-.06,22.52-.06,4.82,0,9.64.07,14.46,0a4.28,4.28,0,0,1,3.38,1.51c3.44,3.51,6.93,7,10.4,10.44.46.46.95.9,1.37,1.38a3,3,0,0,0,2.47,1c4.08,0,8.16,0,12.24,0,3.33,0,6.67-.06,10,0A4.32,4.32,0,0,0,494.08,90c5.79-5.87,11.67-11.66,17.45-17.55a4.28,4.28,0,0,1,3.35-1.54c4.82.08,9.64,0,14.46,0a6.76,6.76,0,0,1,1.08.18Z"/><path class="cls-2" d="M-6.57,95.46c3.85,3.88,7.64,7.81,11.57,11.61a5.52,5.52,0,0,1,1.77,4.4c-.06,10.2,0,20.39,0,30.59,0,3.3-.28,2.56,2,4.83L39.4,177.57a11.84,11.84,0,0,0,1.18,1.17c1.49,1.12,1.79,2.61,1.78,4.39,0,16.78,0,33.56,0,50.34v3.4c.78.81,1.53,1.62,2.3,2.4q14.25,14.26,28.51,28.52c.39.4.76.82,1.18,1.18a3.08,3.08,0,0,1,1.16,2.68c-.06.84,0,1.67,0,2.51q0,28.92,0,57.84a9.07,9.07,0,0,1,0,1.38c-.26,1.84.54,3.12,1.82,4.38q15.11,15,30.1,30.07a8.3,8.3,0,0,0,.79.78c1.64,1.22,2.07,2.81,2,4.84-.09,12.05,0,24.1,0,36.15a12.08,12.08,0,0,1-.17,2.48c-.06.27-.64.43-1,.63a3.32,3.32,0,0,1-.5-2.53q0-10,0-20c0-5.47-.08-10.94,0-16.41a5.15,5.15,0,0,0-1.75-4.12Q91.37,354.35,76.07,339c-2.51-2.51-2.22-1.69-2.23-5.3q0-29.74,0-59.51c0-3.74.29-2.9-2.34-5.53q-14.14-14.17-28.31-28.31c-.85-.85-1.69-1.72-2.6-2.66v-3.31q0-24.62,0-49.22c0-.74,0-1.49,0-2.22a3,3,0,0,0-1.07-2.72c-.56-.48-1-1-1.58-1.56Q22.6,163.3,7.25,148c-.46-.46-.9-.94-1.38-1.37A2.65,2.65,0,0,1,5,144.38c0-.65,0-1.3,0-1.95,0-10.1,0-20.21,0-30.31A5.08,5.08,0,0,0,3.32,108C0,104.8-3.28,101.5-6.57,98.25Z"/><path class="cls-2" d="M39.6.89c.31.34.61.7.94,1L99.92,61.33c1.9,1.9,3.78,3.81,5.69,5.7a3.28,3.28,0,0,1,1,2.19,33,33,0,0,1,0,5.26c-.21,2.58-.07,5.19-.08,7.78,0,1.76.07,3.53,0,5.29a3.81,3.81,0,0,0,1.49,3.39c.71.59,1.34,1.29,2,1.94q26.66,26.66,53.29,53.32c.4.39.77.81,1.19,1.17a2.62,2.62,0,0,1,.91,2.22c0,.65,0,1.3,0,1.95v57.85c.7.45,1.34.81,1.91,1.26a4.7,4.7,0,0,1-3.32,8.42,4.57,4.57,0,0,1-4.12-3.57,4.4,4.4,0,0,1,1.4-4.54,18.52,18.52,0,0,1,2.29-1.52c.41-2.65-.14-5.51.08-8.36s.05-5.75.05-8.62,0-5.75,0-8.62,0-5.93,0-8.89V149.12c-.8-.82-1.5-1.56-2.22-2.27q-20.46-20.46-40.93-40.9c-4.2-4.19-8.46-8.31-12.7-12.46-.53-.52-1-1.09-1.57-1.58a4.6,4.6,0,0,1-1.48-4.21c.24-3.14.17-6.3.14-9.45,0-2.68-.21-5.37-.26-8a3.58,3.58,0,0,0-1.21-2.68c-2.07-2-4.08-4-6.11-6.06Q82.76,46.79,68.12,32.13,53.66,17.68,39.17,3.25C38.48,2.56,37.49,2,37.38.89Z"/><path class="cls-2" d="M-6.57,167.23c5.63,5.62,11.23,11.27,16.91,16.84A5,5,0,0,1,11.87,188c-.06,7.78,0,15.57,0,23.36q0,30.87,0,61.73,0,28.09,0,56.18a18.26,18.26,0,0,1,0,2.22,3.83,3.83,0,0,0,1.44,3.41q8.9,8.77,17.73,17.66Q45,366.64,59.06,380.74q3.33,3.36,6.69,6.68c.52.51,1.09,1,1.62,1.46.72-.17,1.34-.35,2-.46a4.66,4.66,0,0,1,5.27,3.1,4.75,4.75,0,0,1-8.31,4.32,4.22,4.22,0,0,1-.8-3.15c.09-.82.3-1.62.48-2.55-.67-.7-1.36-1.44-2.08-2.15l-32.69-32.6c-6.5-6.49-12.94-13-19.48-19.47A5.26,5.26,0,0,1,10,331.77q.08-27.12,0-54.23v-54q0-17,0-33.93V186.5c-1.63-1.85-3.45-3.56-5.21-5.33C1.91,178.22-1,175.29-4,172.33c-.9-.92-1.73-1.92-2.59-2.88Z"/><path class="cls-2" d="M15.68.89,50.83,36.11,75,60.33l1,1a2.54,2.54,0,0,1,.73,2q-.06,16.4,0,32.79c0,.92.06,1.84.09,2.61.82.85,1.7.61,2.5.61,6.21,0,12.42,0,18.63,0a13.12,13.12,0,0,0,1.66,0,4.81,4.81,0,0,1,4.38,1.79c3.33,3.48,6.79,6.84,10.2,10.25L152.4,149.7a4.78,4.78,0,0,0,.39.39,4.08,4.08,0,0,1,1.57,3.64c-.1,4,0,8,0,12q0,12.65,0,25.28c0,1.19.21,2.38.32,3.58l.07-.08-2,.13a4.94,4.94,0,0,1-.29-1.15c0-7.78,0-15.56,0-23.35,0-4.72.1-9.45.15-14.18,0-.74,0-1.48,0-2.22a2.36,2.36,0,0,0-.82-2c-.27-.24-.52-.52-.79-.78Q135.58,135.45,120.18,120q-8.34-8.37-16.71-16.71a14.42,14.42,0,0,0-1.6-1.53,3.48,3.48,0,0,0-1.49-.6,12.53,12.53,0,0,0-1.94,0H78.13c-.91,0-1.83,0-2.66-.07-.77-.93-.55-1.89-.55-2.78,0-4.36,0-8.72,0-13.07,0-6.49-.07-13,0-19.47A5.87,5.87,0,0,0,73,61.1Q50.75,38.94,28.54,16.7,21.66,9.83,14.77,2.93c-.65-.65-1.25-1.36-1.87-2Z"/><path class="cls-2" d="M52.4.89a4.7,4.7,0,0,0,.48,1c.56.62,1.16,1.2,1.75,1.79L111,60.09l35.2,35.19c1.57,1.57,3.19,3.1,4.7,4.73a4.17,4.17,0,0,0,3.43,1.41c4.17-.07,8.34,0,12.51,0a4,4,0,0,1,3.19,1.28q5.25,5.37,10.62,10.61a4.32,4.32,0,0,1,1.38,3.43c0,7.69,0,15.39,0,23.08q0,10.28,0,20.57v3.25l8.16,8.19,8.06,8.07c2.74,2.74,5.48,5.49,8.35,8.35l-1,1.21c-.62-.53-1.2-1-1.72-1.49-7.34-7.33-14.67-14.69-22-22a4.67,4.67,0,0,1-1.57-3.64c0-5.65-.1-11.3-.1-17,0-8.9.08-17.8.13-26.69,0-.56,0-1.12,0-1.67a3.16,3.16,0,0,0-1.11-2.69c-3.3-3.26-6.57-6.53-9.77-9.88A4.28,4.28,0,0,0,166,103c-4,.1-8,0-11.95.16a5.35,5.35,0,0,1-4.38-1.81q-17.91-18.08-35.92-36Q96.85,48.36,79.94,31.47,65.78,17.31,51.61,3.17c-.72-.71-1.33-1.52-2-2.28Z"/><path class="cls-2" d="M-6.57,8.68c.87.8,1.77,1.57,2.61,2.4q27,27,54,54.07c3,2.94,5.86,5.93,8.86,8.82a4.5,4.5,0,0,1,1.43,3.42c.16,5.46-.1,10.92,0,16.37,0,3.08-.44,2.36,2,4.81s5.08,4.87,7.57,7.35c1.71,1.69,3.38,3.43,5,5.24a4.36,4.36,0,0,0,3.67,1.47c5.19-.07,10.38,0,15.57,0a4.62,4.62,0,0,1,3.65,1.53c5.33,5.42,10.72,10.78,16.1,16.13,1.18,1.17,2.45,2.26,3.73,3.44.76-.08,1.48-.2,2.21-.21a4.52,4.52,0,0,1,4.49,2.66,4.86,4.86,0,0,1-.55,5.25c-1.85,2.53-6.59,1.83-8-1.14a4.24,4.24,0,0,1-.31-3.24c.21-.6.4-1.21.65-2L95.51,114.37h-5.9c-4,0-8,0-12,0A4.32,4.32,0,0,1,74.22,113c-4.74-4.83-9.53-9.59-14.33-14.34a4,4,0,0,1-1.34-3.18c.06-2.69,0-5.37,0-8.06,0-3.24,0-6.48,0-9.72a3,3,0,0,0-.94-2.48c-.56-.49-1.06-1-1.58-1.57Q26.16,43.8-3.72,13.93c-1-1-1.9-2-2.85-3Z"/><path class="cls-2" d="M-6.57,191.15a66.79,66.79,0,0,0,5.39,5.13c2.09,1.62,2.52,3.56,2.48,6C1.1,213,1,223.63,1,234.28c0,9.27.05,18.54.05,27.8C1,266.44,1,270.8,1,275.15c0,1.67.14,3.33.2,5,0,.56.05,1.12,0,1.67-.07,2.78-.22,5.55-.23,8.33q0,22.67,0,45.32A16,16,0,0,0,1,338a3.41,3.41,0,0,0,.73,1.72c1.63,1.76,3.35,3.44,5.05,5.14L31.55,369.6c.71.71,1.39,1.46,2.2,2.31l-1.1,1.18c-.79-.75-1.52-1.44-2.23-2.14q-11.61-11.59-23.21-23.2c-2.16-2.15-4.27-4.37-6.5-6.44a4.22,4.22,0,0,1-1.46-3.69c.06-.83,0-1.67,0-2.5q0-25.44,0-50.89c0-1.38-.13-2.77-.19-4.16a13.15,13.15,0,0,1,0-1.66c.47-5.65.17-11.3.18-17,0-5.19.05-10.38.05-15.57q0-21.27,0-42.54c0-4.88.42-3.47-2.94-7-1-1-1.91-2-2.86-3Z"/><path class="cls-2" d="M74.09.89c.51.54,1,1.09,1.53,1.61l36.49,36.56c.65.65,1.27,1.32,1.9,2l-2.41,3c.17-.91.28-1.54.41-2.31-.73-.77-1.48-1.57-2.26-2.35l-36-35.89c-.85-.85-1.64-1.76-2.46-2.64Z"/><path class="cls-2" d="M157.84,199.7c0-.69.07-1.37.11-2.07.51.72,1,1.42-.1,2.05Z"/><path class="cls-2" d="M116.24,40.63Z"/><path class="cls-2" d="M117.61,49.47a3.61,3.61,0,0,1,.67-.36c.12,0,.28,0,.41.07-.09.14-.16.33-.28.39a3.33,3.33,0,0,1-.71.16Z"/><path class="cls-2" d="M154.66,194.54l.47.12-.4-.2Z"/><path class="cls-2" d="M157.85,199.68l.07.4c0-.08,0-.23-.08-.38Z"/></svg>