<?xml version="1.0" encoding="utf-8"?>
<!-- Generator: Adobe Illustrator 22.0.0, SVG Export Plug-In . SVG Version: 6.00 Build 0)  -->
<svg version="1.1" id="图层_1" xmlns="http://www.w3.org/2000/svg" xmlns:xlink="http://www.w3.org/1999/xlink" x="0px" y="0px"
	 viewBox="0 0 1920 1080" style="enable-background:new 0 0 1920 1080;" xml:space="preserve">
<style type="text/css">
	.st0{fill:#1C1C2D;}
	.st1{fill:#29293F;}
	.st2{fill:none;}
</style>
<rect x="0.5" y="-0.5" class="st0" width="1919" height="1081"/>
<path class="st1" d="M1657.4,620.7V459.7c15.2-7.6,27.3-22.8,27.3-41c0-25.8-19.7-45.5-45.5-45.5c-10.6,0-21.3,4.6-28.8,10.6
	l-156.4-82c-4.6-19.7-22.8-34.9-44-34.9c-22.8,0-42.5,16.7-45.5,39.5l-150.3,80.5c-7.6-9.1-19.7-13.7-31.9-13.7
	c-25.8,0-45.5,19.7-45.5,45.5c0,21.3,15.2,39.5,34.9,44v154.8c-19.7,4.6-34.9,22.8-34.9,44c0,25.8,19.7,45.5,45.5,45.5
	c12.1,0,24.3-4.6,31.9-13.7l150.3,80.5c3,22.8,21.3,39.5,45.5,39.5c21.3,0,39.5-15.2,44-34.9l154.9-82c7.6,6.1,18.2,10.6,28.8,10.6
	c25.8,0,45.5-19.7,45.5-45.5C1683.2,643.4,1672.6,628.3,1657.4,620.7L1657.4,620.7z M1605.8,628.3l-71.4-34.9V487.1l71.4-34.9
	c6.1,6.1,12.1,9.1,19.7,10.6v154.8C1617.9,619.1,1611.9,623.7,1605.8,628.3L1605.8,628.3z M1592.1,424.8l-74.4,36.4l-92.6-53.1V355
	c10.6-4.6,19.7-12.1,24.3-21.3l142.7,75.9V424.8z M1414.5,643.4l-91.1-51.6V488.6l91.1-51.6l91.1,51.6v103.2L1414.5,643.4z
	 M1394.8,355v56.2l-89.6,51.6l-77.4-38v-10.6l144.2-77.4C1376.5,345.9,1385.7,351.9,1394.8,355L1394.8,355z M1214.1,452.1l78.9,39.5
	v98.7l-78.9,39.5c-3-3-7.6-6.1-12.1-9.1V459.7C1206.5,458.2,1209.6,455.2,1214.1,452.1L1214.1,452.1z M1227.8,655.6l77.4-39.5
	l89.6,51.6v56.2c-9.1,3-18.2,9.1-22.8,18.2l-144.2-75.9V655.6z M1425.1,725.4v-53.1l94.1-53.1l74.4,36.4v6.1c0,3,0,6.1,1.5,9.1
	l-142.7,75.9C1444.9,736,1435.8,728.5,1425.1,725.4L1425.1,725.4z M1425.1,725.4"/>
<rect x="1094.8" y="266.6" class="st2" width="548.2" height="547.5"/>
<g>
</g>
<g>
</g>
<g>
</g>
<g>
</g>
<g>
</g>
<g>
</g>
<g>
</g>
<g>
</g>
<g>
</g>
<g>
</g>
<g>
</g>
</svg>
