<?xml version="1.0" encoding="utf-8"?>
<!-- Generator: Adobe Illustrator 22.1.0, SVG Export Plug-In . SVG Version: 6.00 Build 0)  -->
<svg version="1.1" id="图层_1" xmlns="http://www.w3.org/2000/svg" xmlns:xlink="http://www.w3.org/1999/xlink" x="0px" y="0px"
	 viewBox="0 0 1920 1080" style="enable-background:new 0 0 1920 1080;" xml:space="preserve">
<style type="text/css">
	.st0{fill:#1C1C2D;}
	.st1{fill:none;}
	.st2{fill:#29293F;}
</style>
<rect x="0.5" y="-0.5" class="st0" width="1919" height="1081"/>
<rect x="1094.8" y="266.6" class="st1" width="548.2" height="547.5"/>
<path class="st2" d="M1545.3,357.5c-44,0-81.2,30.5-91.4,71.4l-62.9,91.8c-13,2-24.6,7.3-34.4,15.7l-80.6-34.2v76.1l54.3,21.9
	c4.7,37.1,36.7,67,73.6,67c36.8,0,67.2-26,73-61l90.5-62.8c41.2-10,72.1-47.4,72.1-91.6C1639.6,399.9,1597.2,357.5,1545.3,357.5
	L1545.3,357.5z M1389.1,620.8c6.3,0,12.2-1.6,17.4-4.4c7.1-3.6,12.8-9.5,15.6-17.2c4.4-12.7,0.3-26.9-9.3-36.3
	c-0.9-1-1.9-1.9-2.9-2.7c15.9,2.3,27.7,16.3,27.7,32.9c0,18.9-14.8,33.7-33.7,33.7c-7.1,0-13.6-2.5-18.9-6.3
	C1386.4,620.7,1387.8,620.8,1389.1,620.8L1389.1,620.8z M1289.5,522.5l56.4,23.7l-0.6,0.5l49.1,20.9c11.4,4,18.2,16.2,14.1,26.9
	c-0.9,2.4-2.3,4.5-4,6.4c-5.8,5.6-15.1,7.4-23.6,4.4l-91.6-36.4V522.5z M1403.9,653.7c-27.5,0-51.6-20.7-58.5-47.4l15.9,6.4
	c7.9,16.6,24,27.6,42.5,27.6c26.3,0,47.1-21.5,47.1-47.8s-20.9-47.1-47.1-47.1c-6.2,0-12,1.4-17.3,3.5l-16.4-6.9
	c5.7-3.7,12.1-6.3,19.1-7.9l6.5-0.9c0.8-0.2,1.7-0.3,2.5-0.4c1.9-0.1,3.7-0.2,5.6-0.2c33.7,0,60.6,26.9,60.6,60.6
	c0,2.1-0.1,4.1-0.3,6.2c-0.1,0.6-0.2,1.2-0.4,1.9l-0.5,4.1C1457.7,633.1,1433.4,653.7,1403.9,653.7L1403.9,653.7z M1478,589.1
	c-2-37.7-32.3-68-70-70l43.1-63.3c1,24.3,11.4,46.3,27.7,62.5l0.1,0.1c1,1,2,2,3.1,2.9c0.1,0.1,0.2,0.2,0.3,0.2
	c0.5,0.4,0.9,0.8,1.4,1.2c0.1,0.1,0.2,0.2,0.3,0.2c0.5,0.4,1,0.8,1.5,1.3l0.2,0.2c14.8,12.3,33.5,20.1,53.8,21.6L1478,589.1
	L1478,589.1z M1545.7,532.6c-44.3-0.2-80.5-36.5-80.5-80.8c0-6.7,0.7-13.5,2.7-20.2l-0.7-0.3c9.1-34.6,40.8-60.3,78.1-60.3
	c44.4,0,80.8,36.4,80.8,80.8C1626.1,496.1,1589.9,532.4,1545.7,532.6L1545.7,532.6z"/>
<path class="st2" d="M1545.3,397.9c-29.6,0-53.9,24.2-53.9,53.9s24.2,53.9,53.9,53.9s53.9-24.2,53.9-53.9S1574.9,397.9,1545.3,397.9
	L1545.3,397.9z M1545.3,492.2c-22.2,0-40.4-18.2-40.4-40.4c0-22.2,18.2-40.4,40.4-40.4s40.4,18.2,40.4,40.4
	C1585.7,474,1567.5,492.2,1545.3,492.2z"/>
<path class="st2" d="M1585.7,310.4h-255.8c-40.8-0.1-73.9,32.8-74.1,73.6c0,0.1,0,0.3,0,0.4v255.8c-0.1,40.8,32.8,73.9,73.6,74.1
	c0.1,0,0.3,0,0.4,0h255.8c40.8,0.1,73.9-32.8,74.1-73.6c0-0.1,0-0.3,0-0.4V384.4c0.1-40.8-32.8-73.9-73.6-74.1
	C1586,310.4,1585.9,310.4,1585.7,310.4z M1646.3,640.3c0,33.7-26.9,60.6-60.6,60.6h-255.8c-33.7,0-60.6-26.9-60.6-60.6V384.4
	c0-33.7,26.9-60.6,60.6-60.6h255.8c33.7,0,60.6,26.9,60.6,60.6L1646.3,640.3L1646.3,640.3z"/>
</svg>
