<?xml version="1.0" encoding="utf-8"?>
<!-- Generator: Adobe Illustrator 23.0.1, SVG Export Plug-In . SVG Version: 6.00 Build 0)  -->
<svg version="1.1" id="图层_1" xmlns="http://www.w3.org/2000/svg" xmlns:xlink="http://www.w3.org/1999/xlink" x="0px" y="0px"
	 viewBox="0 0 3840 2160" style="enable-background:new 0 0 3840 2160;" xml:space="preserve">
<style type="text/css">
	.st0{fill:url(#SVGID_1_);}
	.st1{opacity:0.34;fill:#6269ED;}
	.st2{fill:#EDEDED;}
</style>
<linearGradient id="SVGID_1_" gradientUnits="userSpaceOnUse" x1="1920" y1="2113.1875" x2="1920" y2="36.4796">
	<stop  offset="0" style="stop-color:#22133D"/>
	<stop  offset="1" style="stop-color:#20163D"/>
</linearGradient>
<rect class="st0" width="3840" height="2160"/>
<rect x="2566.19" y="670.89" class="st1" width="47.18" height="47.18"/>
<rect x="2660.75" y="679.65" class="st1" width="91.64" height="91.64"/>
<rect x="3206.74" y="1299.42" class="st1" width="91.64" height="91.64"/>
<rect x="2872.67" y="1236.4" class="st1" width="91.64" height="91.64"/>
<rect x="2552.02" y="1252.08" class="st1" width="122.68" height="122.68"/>
<rect x="2964.31" y="647.3" class="st1" width="47.18" height="47.18"/>
<rect x="3228.97" y="647.3" class="st1" width="47.18" height="47.18"/>
<rect x="2542.6" y="961.27" class="st1" width="47.18" height="47.18"/>
<rect x="3335.09" y="1056.41" class="st1" width="47.18" height="47.18"/>
<rect x="2825.49" y="1374.76" class="st1" width="47.18" height="47.18"/>
<rect x="2987.9" y="1351.17" class="st1" width="47.18" height="47.18"/>
<rect x="2825.49" y="694.47" class="st1" width="47.18" height="47.18"/>
<rect x="3214.16" y="814.1" class="st1" width="122.68" height="122.68"/>
<g>
	<path class="st2" d="M2946.59,1040.03v251.23l328.91,53.97v-305.21H2946.59z"/>
	<path class="st2" d="M3275.5,984.86v-305.2l-328.91,54.83v250.37C2946.59,984.86,3275.5,984.86,3275.5,984.86z"/>
	<path class="st2" d="M2891.41,984.86V743.63l-278.04,46.38v194.85L2891.41,984.86L2891.41,984.86z"/>
	<path class="st2" d="M2613.36,1040.03v196.58l278.05,45.61v-242.18C2891.41,1040.03,2613.36,1040.03,2613.36,1040.03z"/>
</g>
</svg>
